<?xml version="1.0" encoding="UTF-8"?>
<svg version="1.1" xmlns="http://www.w3.org/2000/svg" width="435" height="573">
<path d="M0 0 C7.33327993 4.49816739 14.37497508 9.32967361 21.38427734 14.3112793 C26.25011331 17.7685838 31.13961161 21.18692646 36.0625 24.5625 C36.71677979 25.01133545 37.37105957 25.4601709 38.04516602 25.92260742 C40.70490032 27.74566709 43.36613048 29.56653276 46.02783203 31.38671875 C48.06098208 32.77753948 50.09329844 34.16956423 52.125 35.5625 C52.78661133 36.0160083 53.44822266 36.4695166 54.12988281 36.93676758 C59.14759715 40.38752706 64.09875059 43.92454844 69.03222656 47.49438477 C73.58248448 50.76314956 78.27946391 53.74388614 83.0859375 56.625 C83.71757812 57.07875 84.34921875 57.5325 85 58 C85 58.66 85 59.32 85 60 C85.71406006 60.25595947 86.42812012 60.51191895 87.16381836 60.77563477 C90.20901293 62.09022982 92.66626956 63.68388036 95.37890625 65.58984375 C96.38244141 66.29173828 97.38597656 66.99363281 98.41992188 67.71679688 C99.45697266 68.44962891 100.49402344 69.18246094 101.5625 69.9375 C102.60341797 70.66646484 103.64433594 71.39542969 104.71679688 72.14648438 C112.50816899 77.61297118 112.50816899 77.61297118 115.20898438 79.73828125 C116.89475742 81.20002632 116.89475742 81.20002632 118.90234375 80.91015625 C121.68768094 79.70162075 124.05139596 78.14612072 126.5625 76.4375 C127.62597656 75.71433594 128.68945312 74.99117188 129.78515625 74.24609375 C133.64279026 71.55090595 137.43941908 68.77988354 141.23046875 65.9921875 C144.04870217 63.96496741 146.9146542 62.03642677 149.8125 60.125 C156.12478581 55.95774516 162.25824565 51.56306484 168.3984375 47.14892578 C174.37092424 42.8643949 180.41667589 38.68788963 186.5 34.5625 C188.00046875 33.54349609 188.00046875 33.54349609 189.53125 32.50390625 C192 31 192 31 194 31 C194 30.34 194 29.68 194 29 C195.6969642 27.71825044 197.46171796 26.52591998 199.25 25.375 C200.33539063 24.67117187 201.42078125 23.96734375 202.5390625 23.2421875 C203.10786133 22.87577148 203.67666016 22.50935547 204.26269531 22.13183594 C205.98943453 21.00688329 207.69612123 19.85683496 209.3984375 18.6953125 C210.99558594 17.60863281 210.99558594 17.60863281 212.625 16.5 C213.60726562 15.8296875 214.58953125 15.159375 215.6015625 14.46875 C218 13 218 13 220 13 C220 12.34 220 11.68 220 11 C221.86680868 9.61750489 223.79549792 8.31796366 225.75 7.0625 C230.09264947 4.27444893 230.09264947 4.27444893 234.265625 1.24609375 C236 0 236 0 238 0 C238.30380264 28.64176616 238.53298504 57.28329058 238.67355824 85.92634392 C238.74056739 99.22630103 238.83190424 112.52487822 238.98071289 125.82421875 C239.1103657 137.41709665 239.1941748 149.00924919 239.22315043 160.60283196 C239.24008679 166.74093502 239.27982703 172.87696317 239.37449074 179.01440048 C239.4629274 184.7951053 239.48991468 190.57288712 239.47039986 196.35420418 C239.473968 198.47229101 239.49972182 200.59047841 239.54967117 202.7079792 C239.89820136 218.24930503 239.89820136 218.24930503 236.75301528 222.80701303 C233.32814647 226.3647364 229.33281246 228.65607001 225 231 C222.91054565 232.33774098 220.86609963 233.73206329 218.8125 235.125 C214.28801843 238 214.28801843 238 212 238 C211.67 238.99 211.34 239.98 211 241 C209.05859375 242.4375 209.05859375 242.4375 206.4375 244 C200.56495859 247.5930681 194.92868663 251.46832914 189.30834961 255.44335938 C184.21526511 259 184.21526511 259 182 259 C182 259.66 182 260.32 182 261 C179.83984375 262.55078125 179.83984375 262.55078125 176.9375 264.3125 C173.51355787 266.42157775 170.16789764 268.54207802 166.9375 270.9375 C164 273 164 273 162 273 C162 273.66 162 274.32 162 275 C156.70588235 279 156.70588235 279 153 279 C153 279.66 153 280.32 153 281 C151.66578443 281.94799527 150.31964675 282.88117313 148.9375 283.7578125 C146.78907046 285.13523305 144.70978561 286.59047232 142.625 288.0625 C141.35076172 288.94615234 141.35076172 288.94615234 140.05078125 289.84765625 C137.6887616 291.51407472 135.3632111 293.21066337 133.04296875 294.93359375 C131.63307169 295.95608666 130.22291509 296.97822178 128.8125 298 C128.14750488 298.50539307 127.48250977 299.01078613 126.79736328 299.53149414 C123.1282477 302.1563931 121.68594756 303.03224827 117.01171875 302.8125 C116.01785156 302.544375 115.02398437 302.27625 114 302 C114 301.34 114 300.68 114 300 C112.99259766 299.6596875 112.99259766 299.6596875 111.96484375 299.3125 C108.16058802 297.6284026 104.95668042 295.3874042 101.5625 293 C100.85802734 292.51015625 100.15355469 292.0203125 99.42773438 291.515625 C94.35845716 287.98125023 89.3270837 284.39407671 84.31103516 280.78466797 C79.07070386 277.02280005 73.75453826 273.37481725 68.41601562 269.75390625 C64.81757245 267.30125424 61.39904392 264.72637848 58 262 C56.34757393 261.0746414 54.69478201 260.1499215 53.0390625 259.23046875 C49.67046186 257.1976925 46.57276866 254.80091372 43.41015625 252.46484375 C39.2386142 249.41772709 34.9587672 246.52971531 30.6875 243.625 C22.71092514 238.1926707 14.79742687 232.68742206 7 227 C6.33069206 226.67052557 5.66138412 226.34105114 4.97179413 226.00159264 C2.41809047 224.56879115 0.82085869 223.31089566 -1 221 C-2.19418381 215.89662104 -2.01222284 210.83535461 -1.90820312 205.63134766 C-1.90594518 204.05412919 -1.90721585 202.47690231 -1.91174316 200.89968872 C-1.91403574 196.626713 -1.86705279 192.35553902 -1.8111515 188.08298159 C-1.76109146 183.61477106 -1.75643784 179.14651776 -1.74694824 174.67807007 C-1.72209744 166.2205391 -1.65646835 157.76383683 -1.57615232 149.30667055 C-1.48668786 139.67684403 -1.44273593 130.04697762 -1.40258884 120.41683888 C-1.31900053 100.61076364 -1.17831531 80.80543405 -1 61 C2.43625599 61.77211603 4.80789444 62.97128893 7.75 64.9375 C8.54921875 65.46214844 9.3484375 65.98679687 10.171875 66.52734375 C10.77515625 67.01332031 11.3784375 67.49929687 12 68 C12 68.66 12 69.32 12 70 C12.55816406 70.0928125 13.11632812 70.185625 13.69140625 70.28125 C16.610477 71.19006391 18.50078871 72.65322934 20.9375 74.5 C24.08068677 76.86798033 27.21955283 79.17315214 30.5390625 81.28515625 C31.1256665 81.66542969 31.71227051 82.04570312 32.31665039 82.4375 C33.98603007 83.5132239 35.66661021 84.57150631 37.34765625 85.62890625 C41.05972857 88.94735676 41.84878215 92.44185076 42.13414764 97.26937294 C42.14723436 99.91108758 42.08760306 102.54240721 42.00488281 105.18286133 C41.95890513 107.25291042 41.91311716 109.32296373 41.86749268 111.39302063 C41.82593929 113.02741813 41.82593929 113.02741813 41.78354645 114.69483376 C41.64584724 120.49446101 41.57457972 126.2950737 41.4921875 132.09570312 C41.38432956 139.46399039 41.25670166 146.83019005 41.05371094 154.1965332 C40.89102755 160.16344084 40.79751327 166.12797923 40.74959564 172.09686852 C40.71881638 174.36382754 40.66291205 176.6305958 40.58090973 178.89628029 C39.67390015 190.44890345 39.67390015 190.44890345 43.43785095 200.93517685 C46.33991122 203.67402895 49.44615645 205.62288137 52.98309326 207.44267273 C53.97867249 207.95659073 54.97425171 208.47050873 56 209 C56 209.66 56 210.32 56 211 C56.59135742 211.12133301 57.18271484 211.24266602 57.79199219 211.36767578 C61.39299009 212.39892131 64.22771428 214.73083549 67.25 216.875 C68.67438858 217.86992136 70.09887064 218.86470891 71.5234375 219.859375 C72.2565918 220.37435547 72.98974609 220.88933594 73.74511719 221.41992188 C77.44052197 224.00942596 81.15767861 226.5671086 84.875 229.125 C85.90028809 229.83438721 85.90028809 229.83438721 86.94628906 230.55810547 C90.37130614 232.94692335 90.37130614 232.94692335 94 235 C94 235.66 94 236.32 94 237 C94.99 237 95.98 237 97 237 C97 237.66 97 238.32 97 239 C97.66 239.21269531 98.32 239.42539062 99 239.64453125 C103.82083812 241.82269639 107.89720639 245.11040479 112.1171875 248.27539062 C116.14434624 251.31542694 116.14434624 251.31542694 121 251.83203125 C121.66 251.55746094 122.32 251.28289062 123 251 C123 250.34 123 249.68 123 249 C124.485 248.195625 124.485 248.195625 126 247.375 C128.62133002 245.87487252 131.04347058 244.27701036 133.4375 242.4375 C137.36744583 239.42378432 141.41499776 236.60973763 145.5 233.8125 C146.18876221 233.34070313 146.87752441 232.86890625 147.5871582 232.3828125 C149.72400368 230.9207474 151.86190353 229.46023491 154 228 C165.18967124 220.3516985 176.36069064 212.67648537 187.24609375 204.59765625 C188.23738281 203.86417969 189.22867188 203.13070312 190.25 202.375 C191.12140625 201.72273437 191.9928125 201.07046875 192.890625 200.3984375 C195 199 195 199 197 199 C196.75622037 197.91499568 196.75622037 197.91499568 196.50751591 196.80807209 C196.027163 194.15029218 195.87677383 191.76613194 195.87974548 189.07084656 C195.87768349 187.62171623 195.87768349 187.62171623 195.87557983 186.14331055 C195.87917511 185.09530273 195.88277039 184.04729492 195.88647461 182.9675293 C195.88632858 181.85489212 195.88618256 180.74225494 195.8860321 179.59590149 C195.8867282 175.92198734 195.8945065 172.24812403 195.90234375 168.57421875 C195.904209 166.02545703 195.9056324 163.47669495 195.90663147 160.92793274 C195.91005818 154.90737464 195.91793796 148.88683833 195.92798096 142.86628896 C195.93916882 136.01019958 195.94465928 129.15410933 195.94967639 122.29801309 C195.9601213 108.19866532 195.97770407 94.09933366 196 80 C195.34 80 194.68 80 194 80 C194 80.66 194 81.32 194 82 C193.071875 82.495 192.14375 82.99 191.1875 83.5 C186.81367867 85.99175276 182.84131526 88.9791209 178.79296875 91.9609375 C176.20207045 93.85247444 173.59065775 95.697049 170.9375 97.5 C170.22464844 97.9846875 169.51179687 98.469375 168.77734375 98.96875 C167 100 167 100 165 100 C165 100.66 165 101.32 165 102 C163.38061523 103.26611328 163.38061523 103.26611328 161.12109375 104.6953125 C157.71863439 106.88808259 154.35621707 109.11510809 151.03515625 111.4296875 C150.21595703 111.996875 149.39675781 112.5640625 148.55273438 113.1484375 C146.86313433 114.31989353 145.17570114 115.49447984 143.49023438 116.671875 C142.68005859 117.23132813 141.86988281 117.79078125 141.03515625 118.3671875 C140.3069165 118.87362793 139.57867676 119.38006836 138.82836914 119.90185547 C137 121 137 121 135 121 C135 121.66 135 122.32 135 123 C132.63938127 124.83801635 130.29174368 126.52467703 127.8125 128.1875 C127.13896484 128.66380859 126.46542969 129.14011719 125.77148438 129.63085938 C120.78059614 132.99544842 120.78059614 132.99544842 117.3203125 133.015625 C114.58032265 131.81630284 112.43987837 130.38308097 110.0625 128.5625 C109.10214844 127.840625 108.14179688 127.11875 107.15234375 126.375 C106.11207031 125.59125 105.07179688 124.8075 104 124 C101.71876791 122.33946123 99.42320265 120.69944534 97.125 119.0625 C96.53041992 118.6382373 95.93583984 118.21397461 95.32324219 117.77685547 C87.79760037 112.41682201 80.19112258 107.17503375 72.55859375 101.96875 C62.5850002 95.16428783 52.67535877 88.28007915 42.82714844 81.29541016 C40.2423751 79.46285973 37.65403019 77.63548184 35.0625 75.8125 C34.31097656 75.28269531 33.55945313 74.75289063 32.78515625 74.20703125 C31.01250834 72.95187191 31.01250834 72.95187191 29 72 C29 71.34 29 70.68 29 70 C28.29230469 69.74605469 27.58460938 69.49210937 26.85546875 69.23046875 C23.72660135 67.882188 21.12970176 66.22699358 18.3125 64.3125 C17.26835938 63.60351562 16.22421875 62.89453125 15.1484375 62.1640625 C14.10945313 61.44992188 13.07046875 60.73578125 12 60 C11.04351562 59.34773438 10.08703125 58.69546875 9.1015625 58.0234375 C0.98763942 52.43173098 0.98763942 52.43173098 -1 50 C-1.36749268 47.78573608 -1.36749268 47.78573608 -1.35644531 45.17724609 C-1.35944641 44.19968353 -1.36244751 43.22212097 -1.36553955 42.2149353 C-1.35319275 41.16174103 -1.34084595 40.10854675 -1.328125 39.0234375 C-1.32625183 37.94244781 -1.32437866 36.86145813 -1.32244873 35.74771118 C-1.31572481 33.46296097 -1.30180366 31.17822234 -1.28125 28.89355469 C-1.25006265 25.38205361 -1.24027689 21.8710009 -1.234375 18.359375 C-1.22520668 16.14322365 -1.21483145 13.9270769 -1.203125 11.7109375 C-1.19887512 10.65369476 -1.19462524 9.59645203 -1.19024658 8.50717163 C-1.18063904 7.53591339 -1.17103149 6.56465515 -1.16113281 5.56396484 C-1.15430481 4.70475433 -1.14747681 3.84554382 -1.14044189 2.96029663 C-1 1 -1 1 0 0 Z " fill="#2073B8" transform="translate(103,168)"/>
<path d="M0 0 C4.52239728 2.84440372 9.59255644 2.9601061 14.7265625 2.0859375 C17.9667837 0.51517037 20.93304684 -1.30104878 23.9765625 -3.22265625 C30.45026209 -7.20434932 37.62211077 -8.04446011 44.984375 -6.4140625 C50.65572205 -4.67511288 55.63295088 -1.90777081 60.7265625 1.0859375 C65.484676 3.46499425 72.72288927 2.42025036 77.7265625 1.0859375 C77.7265625 0.4259375 77.7265625 -0.2340625 77.7265625 -0.9140625 C83.78218984 -4.62158944 89.41963139 -7.35690681 96.7265625 -6.9140625 C96.7265625 -3.9440625 96.7265625 -0.9740625 96.7265625 2.0859375 C95.54900391 2.55773437 95.54900391 2.55773437 94.34765625 3.0390625 C87.37295162 5.84727899 87.37295162 5.84727899 80.7265625 9.3359375 C74.47490764 12.98273617 67.80921468 12.56390789 60.7265625 12.0859375 C57.32213526 11.00786887 54.65834725 9.65228251 51.625 7.80859375 C44.16215506 3.36986252 44.16215506 3.36986252 35.7265625 3.0859375 C30.77883797 5.03005114 26.12236633 7.60055375 21.5065918 10.22216797 C15.70447983 13.03767642 8.97520562 13.01548772 2.7265625 12.0859375 C-0.87548777 10.70909203 -4.20827334 8.85941664 -7.5949707 7.02856445 C-12.40306502 4.44731552 -16.66543443 2.22568072 -22.2734375 3.0859375 C-26.88268268 4.52289128 -30.92896132 6.86256859 -35.0859375 9.2734375 C-40.36951427 12.27782429 -44.29015882 12.18565881 -50.2734375 12.0859375 C-50.2734375 9.4459375 -50.2734375 6.8059375 -50.2734375 4.0859375 C-49.47292969 3.86550781 -49.47292969 3.86550781 -48.65625 3.640625 C-44.07829753 2.26248706 -40.20642955 0.5690184 -36.1484375 -1.9765625 C-23.72760299 -9.68934572 -11.73806389 -7.97029029 0 0 Z " fill="#7ACFE8" transform="translate(198.2734375,315.9140625)"/>
<path d="M0 0 C2.89666842 1.22042375 5.54100196 2.65211317 8.1875 4.34375 C13.15896959 7.4927319 17.60777168 8.4788121 23.43359375 8.22265625 C26.77760591 7.14452837 29.69605575 5.51151471 32.74609375 3.78515625 C41.30868329 -0.64414636 48.40236236 -2.94494729 57.98046875 0.0078125 C60.89885058 1.21727611 63.54865041 2.66811752 66.22265625 4.34375 C70.92498601 7.27465416 74.93298341 8.45264693 80.43359375 8.22265625 C84.44618858 7.10439212 87.68085688 5.61915134 91.35546875 3.68359375 C101.4174985 -1.59772037 101.4174985 -1.59772037 107.43359375 -0.77734375 C107.43359375 2.19265625 107.43359375 5.16265625 107.43359375 8.22265625 C106.40234375 8.49078125 105.37109375 8.75890625 104.30859375 9.03515625 C99.5098179 10.41311799 95.44020659 12.53815952 91.30859375 15.34765625 C84.75970253 19.11471757 75.95146223 19.01115051 68.7734375 17.16796875 C65.78584212 15.96096026 63.22188578 14.31299544 60.49609375 12.59765625 C55.94320714 9.87395204 52.5485991 8.08747904 47.19140625 8.44921875 C42.78840184 9.68405568 38.9820673 12.01846971 35.04296875 14.28295898 C27.0957 18.74827029 19.62967804 19.07937852 10.7890625 17.02734375 C7.60138704 15.93835346 4.97610677 14.36296321 2.22265625 12.44140625 C-2.00030547 9.56462884 -5.3599972 8.5758538 -10.45703125 8.62109375 C-15.32604063 9.56308803 -19.32495019 11.99769893 -23.64550781 14.35888672 C-29.03130857 17.20860516 -33.44229587 18.28259843 -39.56640625 17.22265625 C-39.56640625 14.58265625 -39.56640625 11.94265625 -39.56640625 9.22265625 C-39.00695312 9.08730469 -38.4475 8.95195312 -37.87109375 8.8125 C-32.36879796 7.3351955 -27.74521025 5.29630314 -22.75390625 2.53515625 C-15.26074187 -1.4438949 -8.21381961 -2.4878997 0 0 Z " fill="#70CCE7" transform="translate(187.56640625,338.77734375)"/>
<path d="M0 0 C6.36561187 3.68774306 12.20190663 3.64573626 19.3125 2.3125 C19.3125 1.6525 19.3125 0.9925 19.3125 0.3125 C21.22661557 -0.67164433 23.1438967 -1.64963349 25.0625 -2.625 C26.12984375 -3.17027344 27.1971875 -3.71554687 28.296875 -4.27734375 C35.66193477 -7.72136781 42.26370685 -7.10400387 49.89453125 -4.6796875 C52.87456876 -3.45686112 55.13820029 -1.79304615 57.66796875 0.16796875 C61.55734908 2.87482964 65.31303427 3.38142867 69.9375 3.0625 C74.29666555 2.09379655 77.400255 0.95521807 81.0625 -1.625 C85.29575366 -4.3114879 90.44532408 -7.22447968 95.5859375 -6.26171875 C96.15570313 -6.07222656 96.72546875 -5.88273437 97.3125 -5.6875 C97.3125 -3.0475 97.3125 -0.4075 97.3125 2.3125 C96.51585937 2.62703125 95.71921875 2.9415625 94.8984375 3.265625 C88.11806947 5.89828085 88.11806947 5.89828085 81.875 9.5625 C76.0044031 13.57168812 68.14887961 12.77958184 61.3125 12.3125 C57.90041425 11.21369273 55.14099888 9.79495342 52.05859375 8 C45.78857872 4.54609501 40.47084762 2.7293105 33.3125 4.3125 C30.00731595 5.89498206 26.99994851 7.66764379 23.94140625 9.68359375 C17.73589896 13.5286109 10.39514411 12.87145462 3.3125 12.3125 C-1.66253142 11.01670909 -5.85885031 8.87976866 -10.125 6.0625 C-15.13645366 3.60073329 -19.21062408 3.2070755 -24.6875 4.3125 C-27.9673531 5.89035363 -30.93448681 7.66460036 -33.9609375 9.68359375 C-37.93425366 12.05733707 -41.44189882 12.45225595 -46 12.375 C-47.8253125 12.3440625 -47.8253125 12.3440625 -49.6875 12.3125 C-49.6875 9.6725 -49.6875 7.0325 -49.6875 4.3125 C-49.0584375 4.15394531 -48.429375 3.99539063 -47.78125 3.83203125 C-42.43514136 2.37473356 -38.21886609 0.57807666 -33.6171875 -2.48046875 C-22.0496672 -9.71602295 -11.12226548 -6.59665401 0 0 Z " fill="#78CEE7" transform="translate(197.6875,329.6875)"/>
<path d="M0 0 C4.44018176 2.58612737 8.31722828 3.12680349 13.375 2.25 C18.1439336 0.60128952 22.37960364 -1.92875574 26.75390625 -4.41015625 C32.64801396 -7.42309059 38.82491299 -7.69898448 45.1953125 -5.99609375 C50.49042999 -4.15650934 54.71139499 -1.85907001 59.375 1.25 C65.74673808 3.84189346 69.33353298 3.09828111 75.64453125 0.5390625 C78.1948441 -0.66494786 80.5799566 -1.99307619 83 -3.4375 C87.47246687 -6.07407179 91.22071388 -6.5045578 96.375 -6.75 C96.375 -3.78 96.375 -0.81 96.375 2.25 C95.34375 2.600625 94.3125 2.95125 93.25 3.3125 C90.40253208 4.34339348 87.90093072 5.51699772 85.25390625 7.0078125 C76.39603679 11.97465417 69.72867137 13.78075234 59.375 12.25 C55.09264979 10.92466922 52.00818227 8.72151871 48.4375 6.0625 C44.50427614 3.73467363 40.93418981 3.02204051 36.375 3.25 C31.7798811 4.47203976 28.04696264 6.52258676 23.9375 8.875 C16.429289 12.85582958 9.87774473 13.50856478 1.375 12.25 C-1.63359102 11.30566307 -4.03031824 10.0218313 -6.625 8.25 C-11.72020215 4.98588612 -15.57314753 3.4421223 -21.625 3.25 C-27.09109935 4.76174137 -31.77768422 7.3879616 -36.72265625 10.10546875 C-39.9903192 11.39406262 -41.35634799 11.43557886 -44.625 10.25 C-47.4375 7.6875 -47.4375 7.6875 -49.625 5.25 C-48.625 3.25 -48.625 3.25 -46.9453125 2.609375 C-46.22085938 2.40828125 -45.49640625 2.2071875 -44.75 2 C-39.81269817 0.46746151 -35.56529155 -1.85822915 -31.10546875 -4.4453125 C-20.63467575 -9.95278473 -9.42637053 -5.76420916 0 0 Z " fill="#7DD0E8" transform="translate(198.625,358.75)"/>
<path d="M0 0 C1.45193601 0.74328467 2.88928446 1.51560114 4.3125 2.3125 C6.01440343 3.24105009 7.72294482 4.15752426 9.4375 5.0625 C10.20320313 5.49046875 10.96890625 5.9184375 11.7578125 6.359375 C15.84898981 7.88574696 19.32518522 8.10779031 23.44287109 6.45996094 C25.80174596 5.29100626 28.11879642 4.05910222 30.4375 2.8125 C39.00532768 -1.50121498 46.21907434 -3.86660036 55.75390625 -0.9375 C58.0388837 0.01622972 60.15253489 1.1030741 62.3125 2.3125 C64.01440343 3.24105009 65.72294482 4.15752426 67.4375 5.0625 C68.20320313 5.49046875 68.96890625 5.9184375 69.7578125 6.359375 C74.62721074 8.17609239 78.2326755 7.76233125 82.98828125 5.78125 C84.20811747 5.13923094 85.42042492 4.48271471 86.625 3.8125 C93.11824324 0.3125 93.11824324 0.3125 95.3125 0.3125 C94.97362962 3.18034746 94.5049812 4.14767415 92.2734375 6.05859375 C90.99339844 6.89583984 90.99339844 6.89583984 89.6875 7.75 C88.78386719 8.34941406 87.88023437 8.94882812 86.94921875 9.56640625 C86.07910156 10.14261719 85.20898438 10.71882813 84.3125 11.3125 C83.03770131 12.26555217 81.76625897 13.22313059 80.5 14.1875 C77.45303058 16.21881295 75.92319547 17.22223261 72.3125 17.3125 C66.87217346 16.12551966 62.24408362 14.00779992 57.44140625 11.23046875 C56.78011719 10.86566406 56.11882812 10.50085938 55.4375 10.125 C54.84195313 9.78082031 54.24640625 9.43664062 53.6328125 9.08203125 C49.50785876 7.71399104 45.44143716 7.49708805 41.37792969 9.0534668 C39.42202096 10.06149263 37.5247972 11.14006478 35.625 12.25 C27.55405799 16.61722487 19.56298676 18.84946614 10.375 16.5625 C6.58574933 15.01586708 2.98568815 13.2800848 -0.55859375 11.23046875 C-5.60171133 8.44839804 -8.92374149 7.76357062 -14.6875 8.3125 C-15.88375 8.745625 -17.08 9.17875 -18.3125 9.625 C-21.6875 10.3125 -21.6875 10.3125 -23.45703125 9.40234375 C-25.125 8.0625 -25.125 8.0625 -27.6875 5.3125 C-27.6875 4.6525 -27.6875 3.9925 -27.6875 3.3125 C-19.02472078 -2.16284579 -9.73008593 -4.19459535 0 0 Z " fill="#73CDE7" transform="translate(189.6875,368.6875)"/>
<path d="M0 0 C8.40938048 -0.71943369 13.79067496 0.70508295 21 5 C26.15941377 8.0535306 30.10543455 8.71621817 36 8 C38.85991228 6.95594793 41.41680684 5.49544686 44.0625 4 C52.51150308 -0.33065423 59.53056284 -1.7417358 69 0 C73.00409111 1.58892504 76.4941099 3.50428162 80 6 C80 10 80 10 78.3125 11.8125 C76 13 76 13 73.4375 12.8125 C71 12 71 12 68 10 C57.29674038 8.38952285 50.74001856 11.13109865 42 17 C35.49530447 19.16823184 27.40665885 19.17009448 20.91796875 16.94140625 C15.1190325 13.88016523 10.07279951 9.88022685 5.09375 5.63671875 C3.00496616 3.81547268 3.00496616 3.81547268 0 3 C0 2.01 0 1.02 0 0 Z " fill="#81D0E7" transform="translate(176,382)"/>
<path d="M0 0 C0.33 0 0.66 0 1 0 C1.11667553 28.63257452 1.20491082 57.26511354 1.25906086 85.89787769 C1.28486927 99.19187055 1.32007008 112.48564652 1.37719727 125.77954102 C1.42695148 137.36318977 1.45927184 148.94673174 1.47044247 160.53048438 C1.47697472 166.66702627 1.49238222 172.80326261 1.52865028 178.9397068 C1.56248346 184.71070529 1.57307856 190.48127115 1.56553841 196.25235939 C1.56691863 198.37486112 1.57692611 200.49737671 1.59602737 202.61979294 C1.62076704 205.50946243 1.61497506 208.397481 1.60127258 211.28718567 C1.61583679 212.13445577 1.630401 212.98172587 1.64540654 213.85467082 C1.61523914 216.19503498 1.61523914 216.19503498 1 220 C-1.53757954 222.0445509 -1.53757954 222.0445509 -4 223 C-4 222.01 -4 221.02 -4 220 C-3.34 220 -2.68 220 -2 220 C-1.99576806 218.90870757 -1.99153612 217.81741514 -1.98717594 216.69305325 C-1.88400091 190.14448781 -1.77525478 163.59594966 -1.66066074 137.04743099 C-1.60537314 124.20879458 -1.55189846 111.37015539 -1.50268555 98.53149414 C-1.45978905 87.34185868 -1.41349727 76.1522433 -1.36312145 64.96263891 C-1.33656457 59.03737974 -1.3117126 53.11212443 -1.29092598 47.18684196 C-1.27130678 41.60962431 -1.24714727 36.03244474 -1.21950912 30.45526123 C-1.21016665 28.40864823 -1.20248137 26.36202689 -1.19658089 24.31540108 C-1.18827195 21.51958757 -1.17398209 18.72386532 -1.15821838 15.92808533 C-1.15724028 15.11970323 -1.15626217 14.31132113 -1.15525442 13.47844261 C-1.12200489 8.88741204 -0.75470946 4.53029948 0 0 Z " fill="#316DA0" transform="translate(340,169)"/>
<path d="M0 0 C-0.66 0.33 -1.32 0.66 -2 1 C-2 1.66 -2 2.32 -2 3 C-3.32 3.33 -4.64 3.66 -6 4 C-6 3.34 -6 2.68 -6 2 C-10.97906259 1.24572703 -10.97906259 1.24572703 -16 1 C-17.32 1 -18.64 1 -20 1 C-19.34 2.32 -18.68 3.64 -18 5 C-14.04 5 -10.08 5 -6 5 C-6 5.66 -6 6.32 -6 7 C-5.360625 7.12375 -4.72125 7.2475 -4.0625 7.375 C-3.381875 7.58125 -2.70125 7.7875 -2 8 C-1.505 8.99 -1.505 8.99 -1 10 C-1.78375 9.67 -2.5675 9.34 -3.375 9 C-12.99321464 6.34669941 -18.61654787 8.51225802 -27.07958984 13.13623047 C-32.46494357 15.98639261 -36.87621724 17.05988548 -43 16 C-43 13.36 -43 10.72 -43 8 C-42.44054687 7.86464844 -41.88109375 7.72929687 -41.3046875 7.58984375 C-35.80239171 6.11253925 -31.178804 4.07364689 -26.1875 1.3125 C-17.39265288 -3.39670366 -9.27677034 -3.40976529 0 0 Z " fill="#80D0E7" transform="translate(191,340)"/>
<path d="M0 0 C0.66 0.33 1.32 0.66 2 1 C2 1.99 2 2.98 2 4 C-2.53503522 7.95609456 -5.94618516 9.3764175 -11.79296875 10.40234375 C-14.87918775 11.23808093 -16.96208987 12.85487478 -19.39453125 14.87890625 C-21.31338061 16.21883269 -22.67101136 16.74072679 -25 17 C-27.56336313 15.96319255 -29.65067673 14.49091669 -32 13 C-32 11.68 -32 10.36 -32 9 C-11.50693884 -2.00944896 -11.50693884 -2.00944896 0 0 Z " fill="#8BD1E5" transform="translate(243,396)"/>
<path d="M0 0 C2.9375 1.5625 2.9375 1.5625 6 4 C7.30139003 9.71666193 7.13568622 15.50245326 7.11352539 21.34155273 C7.11367142 22.35694626 7.11381744 23.37233978 7.1139679 24.41850281 C7.1132742 27.75688859 7.10550727 31.09521778 7.09765625 34.43359375 C7.09579014 36.75529449 7.09436715 39.07699562 7.09336853 41.3986969 C7.08955854 47.4961761 7.07974124 53.59363132 7.06866455 59.69110107 C7.05841776 65.91841304 7.05386391 72.1457289 7.04882812 78.37304688 C7.03811759 90.58204176 7.02105944 102.79101888 7 115 C6.01 115 5.02 115 4 115 C3.86730168 104.95706243 3.73679924 94.91409871 3.60884857 84.87109947 C3.54932592 80.2040915 3.48913958 75.53709437 3.42724609 70.87011719 C3.13214231 48.57870747 2.91501597 26.29359885 3 4 C2.34 4 1.68 4 1 4 C0.67 2.68 0.34 1.36 0 0 Z " fill="#7ABED5" transform="translate(138,253)"/>
<path d="M0 0 C4.75 0.875 4.75 0.875 7 2 C7.09342391 17.83769759 7.16396954 33.67532085 7.20724869 49.51322556 C7.22787773 56.86698363 7.25600459 64.22057054 7.30175781 71.57421875 C7.34161545 77.98335548 7.36743034 84.39236826 7.37635398 90.80162549 C7.38157066 94.19563213 7.39383805 97.58928416 7.42292023 100.98317719 C7.45185134 104.77122749 7.45596014 108.55853713 7.45410156 112.34667969 C7.47567322 114.03629318 7.47567322 114.03629318 7.49768066 115.76004028 C7.49218201 116.79206573 7.48668335 117.82409119 7.48101807 118.88739014 C7.48470524 119.78337292 7.48839241 120.6793557 7.49219131 121.60248947 C6.84844937 124.73821745 5.39261596 125.95896965 3 128 C2.01 127.67 1.02 127.34 0 127 C1.28965176 125.62437146 2.62689293 124.29233607 4 123 C4.66 123 5.32 123 6 123 C5.83748025 122.27666379 5.6749605 121.55332758 5.50751591 120.80807209 C5.027163 118.15029218 4.87677383 115.76613194 4.87974548 113.07084656 C4.87837082 112.10475967 4.87699615 111.13867279 4.87557983 110.14331055 C4.87917511 109.09530273 4.88277039 108.04729492 4.88647461 106.9675293 C4.88632858 105.85489212 4.88618256 104.74225494 4.8860321 103.59590149 C4.8867282 99.92198734 4.8945065 96.24812403 4.90234375 92.57421875 C4.904209 90.02545703 4.9056324 87.47669495 4.90663147 84.92793274 C4.91005818 78.90737464 4.91793796 72.88683833 4.92798096 66.86628896 C4.93916882 60.01019958 4.94465928 53.15410933 4.94967639 46.29801309 C4.9601213 32.19866532 4.97770407 18.09933366 5 4 C4.34 4 3.68 4 3 4 C3 4.66 3 5.32 3 6 C2.34 6 1.68 6 1 6 C0.67 4.02 0.34 2.04 0 0 Z " fill="#8BB2CD" transform="translate(294,244)"/>
<path d="M0 0 C-0.33887038 2.86784746 -0.8075188 3.83517415 -3.0390625 5.74609375 C-3.89242187 6.30425781 -4.74578125 6.86242187 -5.625 7.4375 C-6.52863281 8.03691406 -7.43226563 8.63632812 -8.36328125 9.25390625 C-9.23339844 9.83011719 -10.10351562 10.40632813 -11 11 C-12.27479869 11.95305217 -13.54624103 12.91063059 -14.8125 13.875 C-17.85946942 15.90631295 -19.38930453 16.90973261 -23 17 C-29.67791188 15.54300104 -35.22838612 12.56482034 -41 9 C-37.67465243 7.89155081 -35.37817425 8.15545644 -32 9 C-31.67 7.35 -31.34 5.7 -31 4 C-30.236875 4.309375 -29.47375 4.61875 -28.6875 4.9375 C-22.73760469 7.28978419 -18.39195452 7.99643589 -12.32421875 5.46875 C-11.10438253 4.82673094 -9.89207508 4.17021471 -8.6875 3.5 C-2.19425676 0 -2.19425676 0 0 0 Z " fill="#70C9E1" transform="translate(285,369)"/>
<path d="M0 0 C3.11060124 1.16647547 5.96969919 2.53104119 8.875 4.125 C14.28852247 6.86744359 19.20283292 6.40537384 25 5 C24.67 5.66 24.34 6.32 24 7 C23.34 7 22.68 7 22 7 C22 7.66 22 8.32 22 9 C19.03 9 16.06 9 13 9 C13 9.66 13 10.32 13 11 C12.01 11.495 12.01 11.495 11 12 C16.50016964 13.30267176 21.47032059 12.71033431 27 12 C27.495 12.99 27.495 12.99 28 14 C20.02065488 16.65978171 11.55681047 17.25864212 3.84765625 13.4375 C1.84393597 12.19968052 -0.14618888 10.93954371 -2.12109375 9.65625 C-6.2433987 7.28466615 -10.31407975 6.50798693 -15 6 C-15 5.67 -15 5.34 -15 5 C-13.22950311 4.94589313 -11.45853151 4.90715881 -9.6875 4.875 C-8.70136719 4.85179687 -7.71523437 4.82859375 -6.69921875 4.8046875 C-4 5 -4 5 -1 7 C0.12516085 5.16715557 0.12516085 5.16715557 1 3 C0.67 2.01 0.34 1.02 0 0 Z " fill="#75CDE6" transform="translate(191,370)"/>
<path d="M0 0 C2.57070115 2.02374346 3.09054653 3.2304057 3.890625 6.359375 C4.47993153 8.71429476 4.47993153 8.71429476 5.203125 10.734375 C5.863125 11.064375 6.523125 11.394375 7.203125 11.734375 C2.328125 10.859375 2.328125 10.859375 1.203125 9.734375 C0.06875 9.59 -1.065625 9.445625 -2.234375 9.296875 C-5.796875 8.734375 -5.796875 8.734375 -7.796875 6.734375 C-7.796875 5.744375 -7.796875 4.754375 -7.796875 3.734375 C-12.746875 3.734375 -17.696875 3.734375 -22.796875 3.734375 C-21.796875 0.734375 -21.796875 0.734375 -19.546875 -1.015625 C-13.24624446 -3.11583518 -6.08721978 -2.75455197 0 0 Z " fill="#71CDE8" transform="translate(194.796875,313.265625)"/>
<path d="M0 0 C3.83736322 0.95934081 4.59660228 1.23609263 7 4 C5.02 4 3.04 4 1 4 C1 55.48 1 106.96 1 160 C0.67 160 0.34 160 0 160 C0 107.2 0 54.4 0 0 Z " fill="#588CBB" transform="translate(102,229)"/>
<path d="M0 0 C0.66 0.33 1.32 0.66 2 1 C3.32860925 1.35169068 4.66158328 1.68770276 6 2 C5.67 2.66 5.34 3.32 5 4 C6.32 3.67 7.64 3.34 9 3 C9 2.34 9 1.68 9 1 C13.06225548 1.57823096 15.84762346 2.89117737 19.3125 5.0625 C20.19550781 5.61035156 21.07851562 6.15820312 21.98828125 6.72265625 C22.65214844 7.14417969 23.31601563 7.56570313 24 8 C21 9 21 9 17 9 C17 9.66 17 10.32 17 11 C12.27536912 10.53680089 8.82942948 9.90108294 5 7 C5 6.34 5 5.68 5 5 C4.319375 5.165 3.63875 5.33 2.9375 5.5 C-0.45315882 6.07713342 -3.56650292 6.19434889 -7 6 C-7.66 5.34 -8.32 4.68 -9 4 C-9 3.01 -9 2.02 -9 1 C-5.5683599 -0.62049672 -3.61040309 -1.36946324 0 0 Z " fill="#6ACBE7" transform="translate(180,340)"/>
<path d="M0 0 C0 0.33 0 0.66 0 1 C-6.93 0.67 -13.86 0.34 -21 0 C-20.67 1.65 -20.34 3.3 -20 5 C-20.33 5.33 -20.66 5.66 -21 6 C-19.02 6 -17.04 6 -15 6 C-15 6.33 -15 6.66 -15 7 C-15.845625 7.2475 -16.69125 7.495 -17.5625 7.75 C-20.2491158 8.7269512 -22.32555582 9.6916808 -24.75 11.125 C-28 13 -28 13 -30 13 C-30 11.68 -30 10.36 -30 9 C-29.01 8.67 -28.02 8.34 -27 8 C-28.98 7.01 -30.96 6.02 -33 5 C-31.62045621 2.24091241 -29.93513795 1.78517015 -27.1875 0.4375 C-25.87845703 -0.21412109 -25.87845703 -0.21412109 -24.54296875 -0.87890625 C-16.12713852 -4.58911098 -8.33459975 -3.31019565 0 0 Z " fill="#86D2E8" transform="translate(250,355)"/>
<path d="M0 0 C0.67804688 0.34933594 1.35609375 0.69867188 2.0546875 1.05859375 C8.45047911 4.18562206 13.87456062 5.82997867 21 6 C21 6.33 21 6.66 21 7 C20.25234375 7.06058594 19.5046875 7.12117188 18.734375 7.18359375 C17.74953125 7.26738281 16.7646875 7.35117187 15.75 7.4375 C14.28820312 7.55931641 14.28820312 7.55931641 12.796875 7.68359375 C10.43538247 7.95074584 8.28098935 8.35371968 6 9 C6 7.68 6 6.36 6 5 C5.34 5 4.68 5 4 5 C3.67 5.66 3.34 6.32 3 7 C0 2.25 0 2.25 0 0 Z M-10 1 C-9.34 1 -8.68 1 -8 1 C-8 1.99 -8 2.98 -8 4 C-7.11248047 4.29003906 -7.11248047 4.29003906 -6.20703125 4.5859375 C-2.0853355 5.94414719 1.9950524 7.32050585 6 9 C6 9.99 6 10.98 6 12 C7.32 12.33 8.64 12.66 10 13 C8 13.8125 8 13.8125 5 14 C2.91867363 12.93049114 1.04746957 11.65594579 -0.89453125 10.3515625 C-7.1075428 6.36324711 -11.80283939 5.56056788 -19 7 C-20.34084736 7.30169066 -21.6806062 7.61517681 -23 8 C-22.3515625 6.046875 -22.3515625 6.046875 -21 4 C-18.3984375 3.390625 -18.3984375 3.390625 -15.375 3.25 C-14.37210938 3.19328125 -13.36921875 3.1365625 -12.3359375 3.078125 C-11.17964844 3.03945313 -11.17964844 3.03945313 -10 3 C-10 2.34 -10 1.68 -10 1 Z " fill="#92D5E9" transform="translate(250,313)"/>
<path d="M0 0 C4 2 8 4 12 6 C8.535 7.485 8.535 7.485 5 9 C5.99 10.485 5.99 10.485 7 12 C9.609621 12.38411275 12.0058074 12.60293197 14.625 12.6875 C15.33140625 12.72166016 16.0378125 12.75582031 16.765625 12.79101562 C18.50985688 12.87351308 20.25490395 12.93843335 22 13 C22 12.34 22 11.68 22 11 C24.64 10.67 27.28 10.34 30 10 C24.45140694 14.60065575 17.8117392 15.27103301 10.75 15.125 C3.28775591 14.30062009 -2.81006043 9.96698317 -9 6 C-8.67 5.34 -8.34 4.68 -8 4 C-7.01 4.33 -6.02 4.66 -5 5 C-5 5.66 -5 6.32 -5 7 C-3.35 6.34 -1.7 5.68 0 5 C0 4.01 0 3.02 0 2 C0 1.34 0 0.68 0 0 Z " fill="#81D1E6" transform="translate(251,342)"/>
<path d="M0 0 C0 0.66 0 1.32 0 2 C-0.99 2 -1.98 2 -3 2 C-3 2.66 -3 3.32 -3 4 C-4.98 4 -6.96 4 -9 4 C-8.67 4.99 -8.34 5.98 -8 7 C-4.7 7.33 -1.4 7.66 2 8 C2 7.01 2 6.02 2 5 C3.65 5 5.3 5 7 5 C7.33 4.01 7.66 3.02 8 2 C8.66 2 9.32 2 10 2 C10 1.34 10 0.68 10 0 C15.94 0 21.88 0 28 0 C28.495 1.98 28.495 1.98 29 4 C28.01 3.649375 27.02 3.29875 26 2.9375 C20.60469442 1.41155499 16.04384705 2.12406555 10.9375 4.3125 C9.35963087 5.21893546 7.78303793 6.12770853 6.21484375 7.05078125 C-0.03247628 10.69836725 -3.8970756 11.11838207 -11 11 C-11 8.36 -11 5.72 -11 3 C-9.54293274 2.49632243 -8.08429904 1.99717444 -6.625 1.5 C-5.81289062 1.2215625 -5.00078125 0.943125 -4.1640625 0.65625 C-2 0 -2 0 0 0 Z " fill="#98D6E9" transform="translate(159,317)"/>
<path d="M0 0 C14.39570064 1.24044586 14.39570064 1.24044586 17.9375 5.125 C18.288125 5.74375 18.63875 6.3625 19 7 C17.75 8.5 17.75 8.5 16 10 C14.68 10 13.36 10 12 10 C11.67 9.34 11.34 8.68 11 8 C8.28553021 7.68758545 5.66090639 7.48663408 2.9375 7.375 C2.17888672 7.33632813 1.42027344 7.29765625 0.63867188 7.2578125 C-1.24047195 7.16326438 -3.12020336 7.08053244 -5 7 C-3.06745228 4.9754262 -1.36841312 3.57894208 1 2 C0.67 1.34 0.34 0.68 0 0 Z " fill="#6BCBE7" transform="translate(234,339)"/>
<path d="M0 0 C5.73842251 -0.20413361 10.60539047 -0.27141454 16 2 C15.67 3.65 15.34 5.3 15 7 C11.24600202 8.2039337 7.66782588 8.09877617 3.75 8.0625 C2.48671875 8.05347656 1.2234375 8.04445313 -0.078125 8.03515625 C-1.04234375 8.02355469 -2.0065625 8.01195312 -3 8 C-1.125 2.25 -1.125 2.25 0 0 Z " fill="#69CBE9" transform="translate(175,324)"/>
<path d="M0 0 C-0.33 0.66 -0.66 1.32 -1 2 C-1.99 2.33 -2.98 2.66 -4 3 C-4 3.66 -4 4.32 -4 5 C-5.56116819 5.33951619 -7.12401338 5.67132544 -8.6875 6 C-9.99267578 6.2784375 -9.99267578 6.2784375 -11.32421875 6.5625 C-13.93712964 6.98972047 -16.35813038 7.07616201 -19 7 C-18.01 5.68 -17.02 4.36 -16 3 C-18.475 2.01 -18.475 2.01 -21 1 C-21 0.67 -21 0.34 -21 0 C-18.03 0 -15.06 0 -12 0 C-12 -0.66 -12 -1.32 -12 -2 C-7.26382227 -3.57872591 -4.10216206 -2.73477471 0 0 Z " fill="#70CCE5" transform="translate(224,363)"/>
<path d="M0 0 C2.5419589 -0.05434116 5.08273682 -0.0938339 7.625 -0.125 C8.33785156 -0.14175781 9.05070313 -0.15851563 9.78515625 -0.17578125 C14.2612164 -0.21684602 17.77949278 0.30913433 22 2 C21.67 2.99 21.34 3.98 21 5 C19.7934375 4.9690625 19.7934375 4.9690625 18.5625 4.9375 C16.06645115 4.70366379 16.06645115 4.70366379 15 6 C12.30764224 6.23678716 9.63501844 6.42198025 6.9375 6.5625 C5.79958008 6.62727539 5.79958008 6.62727539 4.63867188 6.69335938 C2.75934562 6.79973633 0.87969756 6.90039934 -1 7 C-1 6.34 -1 5.68 -1 5 C-0.34 5 0.32 5 1 5 C0.67 3.35 0.34 1.7 0 0 Z " fill="#68CCE7" transform="translate(229,355)"/>
<path d="M0 0 C0 0.33 0 0.66 0 1 C-2.31 1 -4.62 1 -7 1 C-7.309375 1.94875 -7.61875 2.8975 -7.9375 3.875 C-9 7 -9 7 -10 9 C-9.01 8.67 -8.02 8.34 -7 8 C-4.60509014 7.93029948 -2.20832309 7.91551997 0.1875 7.9375 C1.45980469 7.94652344 2.73210937 7.95554687 4.04296875 7.96484375 C5.50669922 7.98224609 5.50669922 7.98224609 7 8 C7.66 6.68 8.32 5.36 9 4 C14.75 5.625 14.75 5.625 17 9 C15.88625 8.979375 14.7725 8.95875 13.625 8.9375 C10.16784079 8.73619282 10.16784079 8.73619282 8 10 C8 10.99 8 11.98 8 13 C6.88625 12.505 6.88625 12.505 5.75 12 C1.29443967 10.81185058 -2.61326829 10.93845367 -7.1953125 11.125 C-10.05258303 10.99765647 -11.58824366 10.47705651 -14 9 C-13.34 9 -12.68 9 -12 9 C-12 7.68 -12 6.36 -12 5 C-12.66 4.34 -13.32 3.68 -14 3 C-8.99067246 -0.00559652 -5.67276511 -0.29341888 0 0 Z " fill="#91D7EA" transform="translate(182,323)"/>
<path d="M0 0 C-3.75 2 -3.75 2 -6 2 C-6 2.99 -6 3.98 -6 5 C-5.34 5.33 -4.68 5.66 -4 6 C-4.99 6 -5.98 6 -7 6 C-7 6.66 -7 7.32 -7 8 C-8.32 8 -9.64 8 -11 8 C-11.33 8.99 -11.66 9.98 -12 11 C-14.64 11.33 -17.28 11.66 -20 12 C-19.67 10.35 -19.34 8.7 -19 7 C-18.34 7 -17.68 7 -17 7 C-16.95875 6.401875 -16.9175 5.80375 -16.875 5.1875 C-16 3 -16 3 -13.5625 1.25 C-8.93950307 -0.37210418 -4.84696209 -0.25863236 0 0 Z " fill="#6CCAE5" transform="translate(237,397)"/>
<path d="M0 0 C3.375 0.25 3.375 0.25 7 1 C8.5 2.8125 8.5 2.8125 9 5 C8.64827002 7.98970481 8.17288535 8.82711465 6 11 C5.67 10.01 5.34 9.02 5 8 C0.900639 7.0672582 -3.12043288 6.71174738 -7.3125 6.4375 C-8.56675781 6.35371094 -9.82101563 6.26992188 -11.11328125 6.18359375 C-12.54220703 6.09271484 -12.54220703 6.09271484 -14 6 C-13.67 5.34 -13.34 4.68 -13 4 C-9.91051895 3.35336443 -6.81613929 2.97571651 -3.6875 2.5625 C-2.800625 2.376875 -1.91375 2.19125 -1 2 C-0.67 1.34 -0.34 0.68 0 0 Z " fill="#77CEE7" transform="translate(187,355)"/>
<path d="M0 0 C2.475 0.99 2.475 0.99 5 2 C5 2.99 5 3.98 5 5 C3.02 5.66 1.04 6.32 -1 7 C0.12109566 8.62493901 0.12109566 8.62493901 2 10 C5.12549017 10.25048636 5.12549017 10.25048636 8 10 C8.33 10.99 8.66 11.98 9 13 C15.93 13.495 15.93 13.495 23 14 C23 14.33 23 14.66 23 15 C6.73215439 15.76255526 6.73215439 15.76255526 0 11 C-4.14220153 8.10045893 -6.91839904 6.483962 -12 6 C-12 5.67 -12 5.34 -12 5 C-7.8803623 3.70756464 -4.33168317 2.73747375 0 3 C0 2.01 0 1.02 0 0 Z " fill="#92D7EA" transform="translate(250,356)"/>
<path d="M0 0 C2.64 0 5.28 0 8 0 C8 1.32 8 2.64 8 4 C2.25 7 2.25 7 0 7 C0 7.66 0 8.32 0 9 C-3.18762365 11.12508244 -5.26512223 11.5020163 -9 12 C-9 11.01 -9 10.02 -9 9 C-7.68 8.67 -6.36 8.34 -5 8 C-5.66 6.68 -6.32 5.36 -7 4 C-4 2 -4 2 0 2 C0 1.34 0 0.68 0 0 Z " fill="#69CCE9" transform="translate(285,341)"/>
<path d="M0 0 C1 2 1 2 1 5 C3.475 5.99 3.475 5.99 6 7 C6 6.01 6 5.02 6 4 C11.28 4 16.56 4 22 4 C21.67 4.66 21.34 5.32 21 6 C18.98455308 6.18053196 16.96053499 6.2683695 14.9375 6.3125 C9.3291464 6.6264693 5.97844629 7.56725424 1.5859375 11.0390625 C1.06257812 11.35617187 0.53921875 11.67328125 0 12 C-0.99 11.67 -1.98 11.34 -3 11 C-3 9.35 -3 7.7 -3 6 C-5.31 6 -7.62 6 -10 6 C-6.74147635 3.8276509 -3.40755272 1.92880342 0 0 Z " fill="#92D7E9" transform="translate(222,385)"/>
<path d="M0 0 C-0.33 0.99 -0.66 1.98 -1 3 C-0.01 3.33 0.98 3.66 2 4 C-1.22047757 7.22047757 -4.7833109 7.90640853 -9.25 8.25 C-12 8 -12 8 -14 6 C-13.67 5.01 -13.34 4.02 -13 3 C-13.99 2.34 -14.98 1.68 -16 1 C-14.0852312 0.63571223 -12.16807707 0.28394694 -10.25 -0.0625 C-9.18265625 -0.25972656 -8.1153125 -0.45695312 -7.015625 -0.66015625 C-4.25228095 -0.97156937 -2.59053383 -0.8991416 0 0 Z " fill="#67CCE7" transform="translate(220,391)"/>
<path d="M0 0 C0.69738281 0.00451172 1.39476562 0.00902344 2.11328125 0.01367188 C3.82555803 0.0253998 5.53779033 0.04333347 7.25 0.0625 C5.375 4.9375 5.375 4.9375 4.25 6.0625 C2.44072719 6.18737758 0.62603893 6.23820846 -1.1875 6.25 C-2.67056641 6.27126953 -2.67056641 6.27126953 -4.18359375 6.29296875 C-6.75 6.0625 -6.75 6.0625 -8.75 4.0625 C-8.42 3.4025 -8.09 2.7425 -7.75 2.0625 C-9.07 1.7325 -10.39 1.4025 -11.75 1.0625 C-7.88276369 -0.20332219 -4.01848738 -0.0493765 0 0 Z " fill="#6BCAE6" transform="translate(235.75,368.9375)"/>
<path d="M0 0 C0.495 0.99 0.495 0.99 1 2 C0.67 2.66 0.34 3.32 0 4 C-1.32 4 -2.64 4 -4 4 C-4.268125 4.639375 -4.53625 5.27875 -4.8125 5.9375 C-6 8 -6 8 -9 9 C-9.556875 9.598125 -10.11375 10.19625 -10.6875 10.8125 C-13.32731533 13.30962261 -15.89694887 14.52262092 -19.1953125 15.97265625 C-21.33025226 17.0093151 -21.33025226 17.0093151 -23 20 C-23.66 20 -24.32 20 -25 20 C-25 20.66 -25 21.32 -25 22 C-27.31 22.33 -29.62 22.66 -32 23 C-9.13609467 4.56804734 -9.13609467 4.56804734 0 0 Z " fill="#659AC3" transform="translate(285,206)"/>
<path d="M0 0 C2.12493141 -0.02693575 4.24995912 -0.04636628 6.375 -0.0625 C7.55835938 -0.07410156 8.74171875 -0.08570313 9.9609375 -0.09765625 C13 0 13 0 15 1 C15 1.99 15 2.98 15 4 C11.8016118 6.6653235 9.81371525 7.9397248 5.625 8.25 C4.75875 8.1675 3.8925 8.085 3 8 C3 7.34 3 6.68 3 6 C2.34 6 1.68 6 1 6 C1 5.01 1 4.02 1 3 C1.66 2.67 2.32 2.34 3 2 C2.01 1.34 1.02 0.68 0 0 Z " fill="#83D1E8" transform="translate(230,396)"/>
<path d="M0 0 C7.34117647 0.48941176 7.34117647 0.48941176 10.5 2.9375 C12 5 12 5 12 7 C13.4540625 7.4021875 13.4540625 7.4021875 14.9375 7.8125 C15.948125 8.204375 16.95875 8.59625 18 9 C18.33 9.99 18.66 10.98 19 12 C19.66 12 20.32 12 21 12 C21 12.66 21 13.32 21 14 C22.423125 14.0928125 22.423125 14.0928125 23.875 14.1875 C24.90625 14.455625 25.9375 14.72375 27 15 C28.375 17.5625 28.375 17.5625 29 20 C24.2305344 18.43445022 20.69690988 15.74572106 16.75 12.75 C11.74488593 9.00519287 6.71637564 5.38465188 1.44140625 2.0234375 C0.96574219 1.68570312 0.49007812 1.34796875 0 1 C0 0.67 0 0.34 0 0 Z " fill="#6399C0" transform="translate(164,261)"/>
<path d="M0 0 C1.125 2.3125 1.125 2.3125 2 5 C1.01 6.485 1.01 6.485 0 8 C-3.1171875 8.58203125 -3.1171875 8.58203125 -6.875 8.8125 C-8.10992187 8.90144531 -9.34484375 8.99039062 -10.6171875 9.08203125 C-13.8166331 9.00444654 -15.36418593 8.71526594 -18 7 C-16.68 6.67 -15.36 6.34 -14 6 C-14 5.34 -14 4.68 -14 4 C-11.03 4 -8.06 4 -5 4 C-5 3.34 -5 2.68 -5 2 C-2 0 -2 0 0 0 Z " fill="#69CBEA" transform="translate(218,375)"/>
<path d="M0 0 C0.33 0.99 0.66 1.98 1 3 C-4.40824742 7.65360825 -4.40824742 7.65360825 -7.5625 9.5 C-10.17323904 10.96330203 -10.17323904 10.96330203 -12.4375 13.5625 C-15.27458038 16.26118621 -17.19449194 17.19031743 -21 18 C-23.18359375 17.5390625 -23.18359375 17.5390625 -25 17 C-24.33355469 16.5875 -23.66710937 16.175 -22.98046875 15.75 C-16.91590192 11.95010358 -11.06579063 7.95565034 -5.3125 3.69921875 C-3.5736132 2.42148943 -1.79544028 1.19696019 0 0 Z " fill="#4C8BBD" transform="translate(290,373)"/>
<path d="M0 0 C3.3 0 6.6 0 10 0 C10 1.65 10 3.3 10 5 C9 6 9 6 6.05859375 6.09765625 C4.26615234 6.08025391 4.26615234 6.08025391 2.4375 6.0625 C0.64119141 6.04896484 0.64119141 6.04896484 -1.19140625 6.03515625 C-2.11824219 6.02355469 -3.04507813 6.01195312 -4 6 C-4.33 6.66 -4.66 7.32 -5 8 C-5 7.01 -5 6.02 -5 5 C-4.34 5 -3.68 5 -3 5 C-3 4.01 -3 3.02 -3 2 C-2.01 2 -1.02 2 0 2 C0 1.34 0 0.68 0 0 Z " fill="#68CDE8" transform="translate(232,383)"/>
<path d="M0 0 C0 2.97 0 5.94 0 9 C-1.093125 9.309375 -2.18625 9.61875 -3.3125 9.9375 C-5.55407994 10.58337897 -7.7869351 11.2623117 -10 12 C-10 11.34 -10 10.68 -10 10 C-4.25 7 -4.25 7 -2 7 C-2.33 6.01 -2.66 5.02 -3 4 C-5.31 3.67 -7.62 3.34 -10 3 C-10 3.66 -10 4.32 -10 5 C-13.52948291 6.66670026 -15.28272326 7.13583456 -19 6 C-6.51480638 -0.88838269 -6.51480638 -0.88838269 0 0 Z " fill="#91D3E5" transform="translate(295,338)"/>
<path d="M0 0 C-0.32858016 2.97693626 -0.87174731 3.88898558 -3.1796875 5.88671875 C-4.06914062 6.48097656 -4.95859375 7.07523437 -5.875 7.6875 C-6.75929688 8.28949219 -7.64359375 8.89148438 -8.5546875 9.51171875 C-11 11 -11 11 -14 12 C-14.33 11.34 -14.66 10.68 -15 10 C-16.89533342 9.53476937 -16.89533342 9.53476937 -19.0625 9.375 C-20.361875 9.25125 -21.66125 9.1275 -23 9 C-23 8.67 -23 8.34 -23 8 C-22.40574219 7.92523438 -21.81148438 7.85046875 -21.19921875 7.7734375 C-14.74204482 6.74912686 -9.86075335 4.5735723 -4.25 1.2421875 C-2 0 -2 0 0 0 Z " fill="#96D6E8" transform="translate(285,369)"/>
<path d="M0 0 C1.11375 0.1546875 1.11375 0.1546875 2.25 0.3125 C0.93 1.3025 -0.39 2.2925 -1.75 3.3125 C-1.09 3.9725 -0.43 4.6325 0.25 5.3125 C-0.41 5.3125 -1.07 5.3125 -1.75 5.3125 C-1.75 6.6325 -1.75 7.9525 -1.75 9.3125 C-3.73 9.9725 -5.71 10.6325 -7.75 11.3125 C-7.75 11.6425 -7.75 11.9725 -7.75 12.3125 C-9.4 12.3125 -11.05 12.3125 -12.75 12.3125 C-12.75 11.3225 -12.75 10.3325 -12.75 9.3125 C-13.74 8.9825 -14.73 8.6525 -15.75 8.3125 C-14.1 8.3125 -12.45 8.3125 -10.75 8.3125 C-10.42 7.6525 -10.09 6.9925 -9.75 6.3125 C-8.76 5.9825 -7.77 5.6525 -6.75 5.3125 C-5.821875 4.0440625 -5.821875 4.0440625 -4.875 2.75 C-2.75 0.3125 -2.75 0.3125 0 0 Z " fill="#68CCE6" transform="translate(284.75,326.6875)"/>
<path d="M0 0 C5.28021978 0.17032967 5.28021978 0.17032967 8 1 C9.8125 3.5625 9.8125 3.5625 11 6 C11.99 6 12.98 6 14 6 C14 7.32 14 8.64 14 10 C3.83763838 8.11808118 3.83763838 8.11808118 0 5 C-0.875 2.875 -0.875 2.875 -1 1 C-0.67 0.67 -0.34 0.34 0 0 Z " fill="#69CCE7" transform="translate(242,312)"/>
<path d="M0 0 C1.04220703 0.46019531 1.04220703 0.46019531 2.10546875 0.9296875 C5.18661473 2.06900464 8.06892908 2.62598909 11.3125 3.125 C12.38113281 3.29257812 13.44976562 3.46015625 14.55078125 3.6328125 C15.35902344 3.75398438 16.16726562 3.87515625 17 4 C17 4.33 17 4.66 17 5 C15.06257659 5.02703381 13.12504521 5.04641125 11.1875 5.0625 C10.10855469 5.07410156 9.02960938 5.08570313 7.91796875 5.09765625 C5 5 5 5 2 4 C2 5.98 2 7.96 2 10 C-2.09912601 9.50313624 -4.82862818 8.00940617 -8.28515625 5.921875 C-10.46501704 4.75001362 -12.55420507 4.29645999 -15 4 C-15 3.67 -15 3.34 -15 3 C-10.4932782 2.82326581 -7.03374456 2.86448818 -3 5 C-2.67 5.66 -2.34 6.32 -2 7 C0.28728734 5.16116119 0.28728734 5.16116119 0.125 2.375 C0.08375 1.59125 0.0425 0.8075 0 0 Z " fill="#92D9EC" transform="translate(195,358)"/>
<path d="M0 0 C-1.0975223 2.99324263 -1.67682892 3.84610901 -4.625 5.25 C-5.40875 5.4975 -6.1925 5.745 -7 6 C-7 6.66 -7 7.32 -7 8 C-2.62065881 7.48041715 1.68803391 6.94324258 6 6 C3.63960962 8.7330836 1.47604252 10.00684499 -2 11 C-5.82924907 10.90426877 -6.92714367 10.06638021 -9.8125 7.4375 C-10.534375 6.633125 -11.25625 5.82875 -12 5 C-11 3 -11 3 -9.00390625 2.1484375 C-8.19824219 1.89320313 -7.39257812 1.63796875 -6.5625 1.375 C-5.75941406 1.11460937 -4.95632812 0.85421875 -4.12890625 0.5859375 C-2 0 -2 0 0 0 Z " fill="#8CD0E2" transform="translate(161,359)"/>
<path d="M0 0 C4.69089797 1.56363266 7.2086616 2.8129924 10 7 C9.34 7.66 8.68 8.32 8 9 C7.67 9.99 7.34 10.98 7 12 C6.67 11.01 6.34 10.02 6 9 C5.401875 8.855625 4.80375 8.71125 4.1875 8.5625 C1.2629977 7.81048512 -0.01030655 6.20287489 -2 4 C-1.34 2.68 -0.68 1.36 0 0 Z " fill="#6BCAE7" transform="translate(189,385)"/>
<path d="M0 0 C2.7286621 1.04331198 5.25412482 2.14118046 7.8125 3.5625 C11.67112264 5.30266315 14.79830625 5.63778502 19 6 C19 6.33 19 6.66 19 7 C15.7 7.66 12.4 8.32 9 9 C8.67 10.65 8.34 12.3 8 14 C6.68 13.67 5.36 13.34 4 13 C4 9.66666667 4 6.33333333 4 3 C1.03 2.505 1.03 2.505 -2 2 C-1.34 1.34 -0.68 0.68 0 0 Z " fill="#88D5E9" transform="translate(192,385)"/>
<path d="M0 0 C0.33 0.66 0.66 1.32 1 2 C0 4 0 4 -2.1796875 4.88671875 C-3.06914062 5.15097656 -3.95859375 5.41523438 -4.875 5.6875 C-5.75929687 5.95949219 -6.64359375 6.23148437 -7.5546875 6.51171875 C-10 7 -10 7 -13 6 C-13.33 5.01 -13.66 4.02 -14 3 C-9.03006806 0.56574762 -5.65394631 -0.34615998 0 0 Z " fill="#67CCEA" transform="translate(167,361)"/>
<path d="M0 0 C1.32 0.66 2.64 1.32 4 2 C3.01 2.495 3.01 2.495 2 3 C2 4.65 2 6.3 2 8 C-1.3 8 -4.6 8 -8 8 C-8.33 6.68 -8.66 5.36 -9 4 C-7.02 4 -5.04 4 -3 4 C-3 3.34 -3 2.68 -3 2 C-2.01 2 -1.02 2 0 2 C0 1.34 0 0.68 0 0 Z " fill="#68CBE7" transform="translate(159,317)"/>
<path d="M0 0 C1.32 0 2.64 0 4 0 C4 0.66 4 1.32 4 2 C5.32 2.33 6.64 2.66 8 3 C7.67 3.99 7.34 4.98 7 6 C1.71502591 7.14507772 1.71502591 7.14507772 -1 7 C-3.5 4.5625 -3.5 4.5625 -5 2 C-3.35 2 -1.7 2 0 2 C0 1.34 0 0.68 0 0 Z " fill="#6BCAE8" transform="translate(253,360)"/>
<path d="M0 0 C1.32 0 2.64 0 4 0 C4 0.66 4 1.32 4 2 C5.32 2.33 6.64 2.66 8 3 C1.7785155 7.38331863 -1.67696381 8.13262071 -9.25 8.0625 C-10.51328125 8.05347656 -11.7765625 8.04445313 -13.078125 8.03515625 C-14.04234375 8.02355469 -15.0065625 8.01195312 -16 8 C-16 7.67 -16 7.34 -16 7 C-12.04 7 -8.08 7 -4 7 C-4 6.34 -4 5.68 -4 5 C-2.68 5 -1.36 5 0 5 C-0.33 4.01 -0.66 3.02 -1 2 C-0.67 1.34 -0.34 0.68 0 0 Z " fill="#87D3E6" transform="translate(217,334)"/>
<path d="M0 0 C1.609375 1.0703125 1.609375 1.0703125 2.609375 3.0703125 C-0.690625 2.4103125 -3.990625 1.7503125 -7.390625 1.0703125 C-7.390625 0.4103125 -7.390625 -0.2496875 -7.390625 -0.9296875 C-15.805625 -0.4346875 -15.805625 -0.4346875 -24.390625 0.0703125 C-20.81878322 -7.07337106 -5.5795597 -2.74905314 0 0 Z " fill="#97D6E7" transform="translate(250.390625,369.9296875)"/>
<path d="M0 0 C2.9719385 1.12451727 5.33440687 2.22293791 8 4 C4.04511543 6.91908147 1.00455731 9 -4 9 C-7.375 7.0625 -7.375 7.0625 -10 5 C-6.67465243 3.89155081 -4.37817425 4.15545644 -1 5 C-0.67 3.35 -0.34 1.7 0 0 Z " fill="#8DD4EF" transform="translate(254,373)"/>
<path d="M0 0 C0.33 0 0.66 0 1 0 C1.33120981 4.60736502 1.62866034 9.21470393 1.87988281 13.82714844 C1.99092551 15.83584772 2.11593634 17.84376173 2.2421875 19.8515625 C2.28601563 20.99367188 2.32984375 22.13578125 2.375 23.3125 C2.42398437 24.33988281 2.47296875 25.36726563 2.5234375 26.42578125 C2 29 2 29 -0.5234375 30.85546875 C-1.34070313 31.23316406 -2.15796875 31.61085938 -3 32 C-3 31.01 -3 30.02 -3 29 C-2.34 29 -1.68 29 -1 29 C-0.67 19.43 -0.34 9.86 0 0 Z " fill="#3977A9" transform="translate(339,360)"/>
<path d="M0 0 C0 2.31 0 4.62 0 7 C-2.70879335 8.35439668 -5.00933268 8.06501451 -8 8 C-8.3125 5.6875 -8.3125 5.6875 -8 3 C-5.13896577 0.75756777 -3.65923696 0 0 0 Z " fill="#6CCAE4" transform="translate(294,310)"/>
<path d="M0 0 C2.475 0.99 2.475 0.99 5 2 C5 6 5 6 3.3125 7.8125 C1 9 1 9 -1.5625 8.875 C-4.1127402 7.95952916 -5.2924841 7.06699293 -7 5 C-5.02 5.66 -3.04 6.32 -1 7 C-1.33 5.35 -1.66 3.7 -2 2 C-1.34 2 -0.68 2 0 2 C0 1.34 0 0.68 0 0 Z " fill="#7ECEE8" transform="translate(251,386)"/>
<path d="M0 0 C2.4765625 1.15234375 2.4765625 1.15234375 5 3 C5.5234375 5.50390625 5.5234375 5.50390625 5.375 8.5625 C5.33117187 9.70203125 5.28734375 10.8415625 5.2421875 12.015625 C5.16226563 13.33046875 5.08234375 14.6453125 5 16 C4.91787891 17.61972169 4.83721726 19.23951787 4.7578125 20.859375 C4.53488939 25.2416647 4.27524218 29.62070028 4 34 C3.67 34 3.34 34 3 34 C3 24.1 3 14.2 3 4 C2.34 4 1.68 4 1 4 C0.67 2.68 0.34 1.36 0 0 Z " fill="#2372B1" transform="translate(138,253)"/>
<path d="M0 0 C0.66 0.33 1.32 0.66 2 1 C1.54625 1.5775 1.0925 2.155 0.625 2.75 C-1.0563597 4.86855745 -1.0563597 4.86855745 -1.78125 7.09375 C-3 9 -3 9 -5.3828125 9.609375 C-6.28773438 9.65578125 -7.19265625 9.7021875 -8.125 9.75 C-9.03507813 9.80671875 -9.94515625 9.8634375 -10.8828125 9.921875 C-11.93082031 9.96054688 -11.93082031 9.96054688 -13 10 C-13 9.01 -13 8.02 -13 7 C-12.43796875 6.89816406 -11.8759375 6.79632813 -11.296875 6.69140625 C-8.54660512 5.86351889 -6.60904126 4.56801382 -4.25 2.9375 C-3.45078125 2.38964844 -2.6515625 1.84179688 -1.828125 1.27734375 C-1.22484375 0.85582031 -0.6215625 0.43429688 0 0 Z " fill="#4F8DBD" transform="translate(233,242)"/>
<path d="M0 0 C0 2.97 0 5.94 0 9 C-4.95 10.485 -4.95 10.485 -10 12 C-10 11.01 -10 10.02 -10 9 C-9.34 9 -8.68 9 -8 9 C-7.67 8.34 -7.34 7.68 -7 7 C-5.35 7.33 -3.7 7.66 -2 8 C-2 6.02 -2 4.04 -2 2 C-3.98 2.33 -5.96 2.66 -8 3 C-5.53387212 -0.1151089 -3.89156016 -0.31553191 0 0 Z " fill="#96D0DF" transform="translate(295,352)"/>
<path d="M0 0 C12.91304348 6.89916744 12.91304348 6.89916744 18 11 C18 11.66 18 12.32 18 13 C16.35 13 14.7 13 13 13 C12.67 12.01 12.34 11.02 12 10 C10.9171875 9.9071875 10.9171875 9.9071875 9.8125 9.8125 C6.11600926 8.7446249 4.46861132 6.89180184 2 4 C2 3.34 2 2.68 2 2 C1.34 2 0.68 2 0 2 C0 1.34 0 0.68 0 0 Z " fill="#6399C0" transform="translate(170,215)"/>
<path d="M0 0 C-0.33 0.99 -0.66 1.98 -1 3 C-1.66 3 -2.32 3 -3 3 C-3 3.99 -3 4.98 -3 6 C-3.66 6 -4.32 6 -5 6 C-5 5.34 -5 4.68 -5 4 C-6.11375 4.515625 -7.2275 5.03125 -8.375 5.5625 C-9.57125 6.036875 -10.7675 6.51125 -12 7 C-12.66 6.67 -13.32 6.34 -14 6 C-13 4 -13 4 -9.9375 2.875 C-8.4834375 2.441875 -8.4834375 2.441875 -7 2 C-7 1.34 -7 0.68 -7 0 C-4.3333581 -1.33332095 -2.83319697 -0.67102033 0 0 Z " fill="#69CCE7" transform="translate(288,358)"/>
<path d="M0 0 C5.73842251 -0.20413361 10.60539047 -0.27141454 16 2 C16 2.33 16 2.66 16 3 C10.5814234 3.22577402 6.22512279 2.46670113 1 1 C1 2.32 1 3.64 1 5 C2.32 5.66 3.64 6.32 5 7 C2.36 7.33 -0.28 7.66 -3 8 C-1.125 2.25 -1.125 2.25 0 0 Z " fill="#77CCE6" transform="translate(175,324)"/>
<path d="M0 0 C2.33944736 0.28730055 4.6739143 0.61936779 7 1 C5.34808509 2.35156675 3.67705908 3.679762 2 5 C1.43410156 5.46664063 0.86820313 5.93328125 0.28515625 6.4140625 C-4.29242318 10 -4.29242318 10 -7.8125 10 C-10 9 -10 9 -12 6 C-9.03 6.33 -6.06 6.66 -3 7 C-2.67 6.01 -2.34 5.02 -2 4 C-1.01 4 -0.02 4 1 4 C1 3.34 1 2.68 1 2 C0.34 1.67 -0.32 1.34 -1 1 C-0.67 0.67 -0.34 0.34 0 0 Z " fill="#70A1C9" transform="translate(228,291)"/>
<path d="M0 0 C-1.7241302 1.29838176 -3.45453232 2.58843747 -5.1875 3.875 C-6.63189453 4.95394531 -6.63189453 4.95394531 -8.10546875 6.0546875 C-10.71128675 7.80596599 -13.04792144 8.97459794 -16 10 C-16.33 9.01 -16.66 8.02 -17 7 C-15.35 7 -13.7 7 -12 7 C-12 5.68 -12 4.36 -12 3 C-10.68 3 -9.36 3 -8 3 C-8 2.34 -8 1.68 -8 1 C-2.25 -1.125 -2.25 -1.125 0 0 Z " fill="#669BC4" transform="translate(244,457)"/>
<path d="M0 0 C3.12290635 0.48578543 5.99580359 0.9986012 9 2 C9.33 2.66 9.66 3.32 10 4 C11.2065625 4.680625 11.2065625 4.680625 12.4375 5.375 C15.12407748 7.07868328 15.89489103 8.08653091 17 11 C12.80591769 9.5137853 9.37332677 7.41721984 5.6875 4.9375 C4.61886719 4.22464844 3.55023438 3.51179688 2.44921875 2.77734375 C1.64097656 2.19082031 0.83273438 1.60429687 0 1 C0 0.67 0 0.34 0 0 Z " fill="#67A1C9" transform="translate(197,455)"/>
<path d="M0 0 C0 0.33 0 0.66 0 1 C-0.75925781 0.97679687 -1.51851562 0.95359375 -2.30078125 0.9296875 C-3.79158203 0.90261719 -3.79158203 0.90261719 -5.3125 0.875 C-6.29863281 0.85179687 -7.28476563 0.82859375 -8.30078125 0.8046875 C-11.22406527 0.79317361 -11.22406527 0.79317361 -14 3 C-14.99 3 -15.98 3 -17 3 C-17 2.34 -17 1.68 -17 1 C-17.66 0.34 -18.32 -0.32 -19 -1 C-12.54749386 -3.15083538 -6.31589907 -2.1500933 0 0 Z " fill="#8CD3E8" transform="translate(190,311)"/>
<path d="M0 0 C0 2.97 0 5.94 0 9 C-0.99 8.67 -1.98 8.34 -3 8 C-2.34 8 -1.68 8 -1 8 C-1 5.69 -1 3.38 -1 1 C-1.71285156 1.34933594 -2.42570312 1.69867188 -3.16015625 2.05859375 C-8.50100834 4.59603761 -13.07866001 6.605244 -19 7 C-13.59164828 2.45698456 -7.04016469 -0.19027472 0 0 Z " fill="#9ED8E8" transform="translate(295,309)"/>
<path d="M0 0 C-0.33 0.99 -0.66 1.98 -1 3 C-0.01 3.33 0.98 3.66 2 4 C1.34 4.66 0.68 5.32 0 6 C-0.99 6 -1.98 6 -3 6 C-3 5.01 -3 4.02 -3 3 C-7.29 2.67 -11.58 2.34 -16 2 C-16 1.67 -16 1.34 -16 1 C-14.0852312 0.63571223 -12.16807707 0.28394694 -10.25 -0.0625 C-9.18265625 -0.25972656 -8.1153125 -0.45695312 -7.015625 -0.66015625 C-4.25228095 -0.97156937 -2.59053383 -0.8991416 0 0 Z " fill="#70C9DF" transform="translate(220,391)"/>
<path d="M0 0 C-2.70530779 2.70530779 -4.47413658 2.42456887 -8.25 2.6875 C-9.36890625 2.77386719 -10.4878125 2.86023438 -11.640625 2.94921875 C-14.90627149 2.99858317 -17.80529951 2.64378055 -21 2 C-21 1.67 -21 1.34 -21 1 C-18.4385681 0.6358011 -15.87641581 0.28337202 -13.3125 -0.0625 C-12.59126953 -0.16626953 -11.87003906 -0.27003906 -11.12695312 -0.37695312 C-7.15920043 -0.9023633 -3.92114889 -1.10596507 0 0 Z " fill="#91D6E4" transform="translate(219,383)"/>
<path d="M0 0 C0.66 0 1.32 0 2 0 C2.33 0.99 2.66 1.98 3 3 C0.51565563 5.34290892 -0.77731593 5.97982934 -4.234375 6.29296875 C-5.39453125 6.25816406 -6.5546875 6.22335937 -7.75 6.1875 C-8.92046875 6.16042969 -10.0909375 6.13335937 -11.296875 6.10546875 C-12.18890625 6.07066406 -13.0809375 6.03585937 -14 6 C-13.67 5.34 -13.34 4.68 -13 4 C-9.91051895 3.35336443 -6.81613929 2.97571651 -3.6875 2.5625 C-2.800625 2.376875 -1.91375 2.19125 -1 2 C-0.67 1.34 -0.34 0.68 0 0 Z " fill="#70C8E0" transform="translate(187,355)"/>
<path d="M0 0 C-6.22746211 3.97865635 -13.5258297 4.62927852 -20.77734375 3.609375 C-22.86925921 3.14670807 -24.93867386 2.5840424 -27 2 C-23.09519751 0.64137027 -19.2898224 1.10530288 -15.25 1.4375 C-14.55261719 1.48970703 -13.85523438 1.54191406 -13.13671875 1.59570312 C-11.42403797 1.72474072 -9.71194934 1.86159614 -8 2 C-8 1.34 -8 0.68 -8 0 C-4.94736336 -0.98120464 -3.05263664 -0.98120464 0 0 Z " fill="#9EDAE8" transform="translate(281,353)"/>
<path d="M0 0 C-1.32 0.33 -2.64 0.66 -4 1 C-4 1.66 -4 2.32 -4 3 C-5.86328125 4.47265625 -5.86328125 4.47265625 -8.3125 6.0625 C-9.11300781 6.58972656 -9.91351563 7.11695313 -10.73828125 7.66015625 C-13 9 -13 9 -16 10 C-16 9.01 -16 8.02 -16 7 C-15.01 7 -14.02 7 -13 7 C-13 6.34 -13 5.68 -13 5 C-12.01 5 -11.02 5 -10 5 C-10 3.68 -10 2.36 -10 1 C-3.71428571 -1.42857143 -3.71428571 -1.42857143 0 0 Z " fill="#5E94C0" transform="translate(272,267)"/>
<path d="M0 0 C1.98 0.99 3.96 1.98 6 3 C6 3.66 6 4.32 6 5 C6.61875 5.103125 7.2375 5.20625 7.875 5.3125 C10 6 10 6 12 9 C10.35 9 8.7 9 7 9 C7 9.66 7 10.32 7 11 C6.34 11 5.68 11 5 11 C5 8.69 5 6.38 5 4 C2.69 4 0.38 4 -2 4 C-1.34 2.68 -0.68 1.36 0 0 Z " fill="#458BC0" transform="translate(109,233)"/>
<path d="M0 0 C5.75 1.625 5.75 1.625 8 5 C6.88625 4.979375 5.7725 4.95875 4.625 4.9375 C1.16784079 4.73619282 1.16784079 4.73619282 -1 6 C-1 6.99 -1 7.98 -1 9 C-2.9375 8.6875 -2.9375 8.6875 -5 8 C-5.33 7.01 -5.66 6.02 -6 5 C-5.38125 4.9175 -4.7625 4.835 -4.125 4.75 C-1.81562433 4.18741541 -1.81562433 4.18741541 -0.75 1.9375 C-0.5025 1.298125 -0.255 0.65875 0 0 Z " fill="#85D4E5" transform="translate(191,327)"/>
<path d="M0 0 C4.75 0.875 4.75 0.875 7 2 C7 5.63 7 9.26 7 13 C6.34 13 5.68 13 5 13 C5 10.03 5 7.06 5 4 C4.34 4 3.68 4 3 4 C3 4.66 3 5.32 3 6 C2.34 6 1.68 6 1 6 C0.67 4.02 0.34 2.04 0 0 Z " fill="#689DC6" transform="translate(294,244)"/>
<path d="M0 0 C6.93 0.495 6.93 0.495 14 1 C12.68 2.32 11.36 3.64 10 5 C6.25 4.75 6.25 4.75 3 4 C3 3.34 3 2.68 3 2 C2.01 1.67 1.02 1.34 0 1 C0 0.67 0 0.34 0 0 Z " fill="#6496BF" transform="translate(214,466)"/>
<path d="M0 0 C0.66 0.33 1.32 0.66 2 1 C4.04055005 1.07065617 6.08334257 1.08421976 8.125 1.0625 C9.22070312 1.05347656 10.31640625 1.04445313 11.4453125 1.03515625 C12.28835937 1.02355469 13.13140625 1.01195312 14 1 C14 1.66 14 2.32 14 3 C14.639375 3.12375 15.27875 3.2475 15.9375 3.375 C16.9584375 3.684375 16.9584375 3.684375 18 4 C18.33 4.66 18.66 5.32 19 6 C18.21625 5.67 17.4325 5.34 16.625 5 C10.79741957 3.39239161 4.83310121 3.31995933 -1 5 C-0.67 3.35 -0.34 1.7 0 0 Z " fill="#9CDBEB" transform="translate(171,344)"/>
<path d="M0 0 C0.66 0 1.32 0 2 0 C5 5.75 5 5.75 5 8 C5.66 8.33 6.32 8.66 7 9 C3.66666667 8.33333333 0.33333333 7.66666667 -3 7 C-2.67 5.35 -2.34 3.7 -2 2 C-1.34 2 -0.68 2 0 2 C0 1.34 0 0.68 0 0 Z " fill="#69CBE5" transform="translate(195,316)"/>
<path d="M0 0 C0.66 0.33 1.32 0.66 2 1 C-1.38779144 4.58707329 -4.73545141 7.49689539 -9 10 C-9.99 10 -10.98 10 -12 10 C-12 10.66 -12 11.32 -12 12 C-12.99 11.67 -13.98 11.34 -15 11 C-14.34 11 -13.68 11 -13 11 C-13 10.34 -13 9.68 -13 9 C-11.0700569 7.5765578 -9.0796509 6.23440799 -7.0625 4.9375 C-3.34860293 2.70667733 -3.34860293 2.70667733 0 0 Z " fill="#6C9FC8" transform="translate(310,188)"/>
<path d="M0 0 C0.66 0.33 1.32 0.66 2 1 C1.01 2.485 1.01 2.485 0 4 C-0.66 4 -1.32 4 -2 4 C-2 4.66 -2 5.32 -2 6 C-2.99 6.33 -3.98 6.66 -5 7 C-5.4125 7.474375 -5.825 7.94875 -6.25 8.4375 C-8.829945 10.74102233 -11.69277566 11.18879403 -15 12 C-11.99764638 8.82608332 -8.80246358 6.28747399 -5.25 3.75 C-4.26515625 3.04359375 -3.2803125 2.3371875 -2.265625 1.609375 C-1.51796875 1.07828125 -0.7703125 0.5471875 0 0 Z " fill="#6C9EC7" transform="translate(251,229)"/>
<path d="M0 0 C1.32 0 2.64 0 4 0 C4 2.31 4 4.62 4 7 C1.69 6.67 -0.62 6.34 -3 6 C-3 5.34 -3 4.68 -3 4 C-2.34 4 -1.68 4 -1 4 C-0.67 2.68 -0.34 1.36 0 0 Z " fill="#67CDEC" transform="translate(160,346)"/>
<path d="M0 0 C2.64 0.66 5.28 1.32 8 2 C8 2.66 8 3.32 8 4 C9.65 4.33 11.3 4.66 13 5 C13.66 6.98 14.32 8.96 15 11 C13.2458877 9.92333797 11.49687413 8.83836661 9.75 7.75 C8.77546875 7.14671875 7.8009375 6.5434375 6.796875 5.921875 C4.20294755 4.13945558 2.13622381 2.29898372 0 0 Z " fill="#669EC6" transform="translate(123,403)"/>
<path d="M0 0 C2.1875 -0.25 2.1875 -0.25 5 0 C5.763125 0.639375 6.52625 1.27875 7.3125 1.9375 C10.08185374 4.06281799 10.93791771 4.31209383 14.25 4.625 C16.10625 4.810625 16.10625 4.810625 18 5 C18.33 5.66 18.66 6.32 19 7 C4.99067676 5.4203137 4.99067676 5.4203137 0 1 C0 0.67 0 0.34 0 0 Z " fill="#94D6E8" transform="translate(190,350)"/>
<path d="M0 0 C1.32 0 2.64 0 4 0 C4.45375 0.61875 4.9075 1.2375 5.375 1.875 C6.89793061 4.29351835 6.89793061 4.29351835 10.0625 4.9375 C11.5165625 5.4634375 11.5165625 5.4634375 13 6 C14.18359375 8.56640625 14.18359375 8.56640625 15 11 C9.37224317 7.8200442 4.29975855 4.87305969 0 0 Z " fill="#6C9DC5" transform="translate(152,423)"/>
<path d="M0 0 C0.99 0.33 1.98 0.66 3 1 C2.79375 1.61875 2.5875 2.2375 2.375 2.875 C2.25125 3.57625 2.1275 4.2775 2 5 C2.66 5.66 3.32 6.32 4 7 C2.02 7.66 0.04 8.32 -2 9 C-2.33 6.69 -2.66 4.38 -3 2 C-2.01 1.34 -1.02 0.68 0 0 Z " fill="#78CCE6" transform="translate(168,327)"/>
<path d="M0 0 C9.59453303 5.0022779 9.59453303 5.0022779 13 9 C11.35 9 9.7 9 8 9 C8 8.34 8 7.68 8 7 C7.195625 6.731875 6.39125 6.46375 5.5625 6.1875 C4.716875 5.795625 3.87125 5.40375 3 5 C2.67 4.01 2.34 3.02 2 2 C1.34 2 0.68 2 0 2 C0 1.34 0 0.68 0 0 Z " fill="#689DC8" transform="translate(179,392)"/>
<path d="M0 0 C2.31 0 4.62 0 7 0 C7 0.99 7 1.98 7 3 C6.34 3 5.68 3 5 3 C5 3.66 5 4.32 5 5 C2.03 4.505 2.03 4.505 -1 4 C-0.67 2.68 -0.34 1.36 0 0 Z " fill="#68CBEA" transform="translate(259,379)"/>
<path d="M0 0 C0.77772405 2.33317216 1.42415568 4.61435923 2 7 C-0.375 7.125 -0.375 7.125 -3 7 C-3.66 6.34 -4.32 5.68 -5 5 C-4.625 2.875 -4.625 2.875 -4 1 C-2.68 0.67 -1.36 0.34 0 0 Z " fill="#69CBE4" transform="translate(222,344)"/>
<path d="M0 0 C0.33 0.66 0.66 1.32 1 2 C0.67 2.66 0.34 3.32 0 4 C-1.32 4 -2.64 4 -4 4 C-4.185625 4.61875 -4.37125 5.2375 -4.5625 5.875 C-6.71437233 9.05602866 -9.37533763 9.19451947 -13 10 C-9.11973109 5.75595588 -4.95745654 2.89082453 0 0 Z " fill="#71A4CA" transform="translate(285,206)"/>
<path d="M0 0 C0 1.32 0 2.64 0 4 C-1.60226955 4.22245393 -3.20696767 4.42746669 -4.8125 4.625 C-5.70582031 4.74101562 -6.59914063 4.85703125 -7.51953125 4.9765625 C-10 5 -10 5 -13 3 C-11.2092015 2.49689942 -9.41733089 1.99761372 -7.625 1.5 C-6.62726563 1.2215625 -5.62953125 0.943125 -4.6015625 0.65625 C-2 0 -2 0 0 0 Z " fill="#97D5E7" transform="translate(276,345)"/>
<path d="M0 0 C2.97 0.99 5.94 1.98 9 3 C6 4 6 4 2 4 C2 4.66 2 5.32 2 6 C0.02 5.34 -1.96 4.68 -4 4 C-2.68 2.68 -1.36 1.36 0 0 Z " fill="#6BCBE3" transform="translate(195,345)"/>
<path d="M0 0 C1.670625 0.061875 1.670625 0.061875 3.375 0.125 C0.5930632 3.39786682 -2.90454067 5.08927697 -6.625 7.125 C-5.84042384 2.15601765 -5.49387562 0.18944399 0 0 Z " fill="#5392C2" transform="translate(278.625,258.875)"/>
<path d="M0 0 C3.63 2.31 7.26 4.62 11 7 C9.68 7.99 8.36 8.98 7 10 C5 7 5 7 5 5 C3.68 4.67 2.36 4.34 1 4 C0.67 2.68 0.34 1.36 0 0 Z " fill="#5E95C2" transform="translate(120,180)"/>
<path d="M0 0 C1.32 0.33 2.64 0.66 4 1 C3.67 1.99 3.34 2.98 3 4 C1.35 3.67 -0.3 3.34 -2 3 C-1.34 2.01 -0.68 1.02 0 0 Z M-8.8359375 2.8046875 C-7.61777344 2.83949219 -7.61777344 2.83949219 -6.375 2.875 C-5.14910156 2.90207031 -5.14910156 2.90207031 -3.8984375 2.9296875 C-2.95871094 2.96449219 -2.95871094 2.96449219 -2 3 C-2.33 3.66 -2.66 4.32 -3 5 C-6.3 5 -9.6 5 -13 5 C-11 3 -11 3 -8.8359375 2.8046875 Z " fill="#72C7E0" transform="translate(247,356)"/>
<path d="M0 0 C6.71700347 -0.31985731 11.75726932 0.5206176 18 3 C18 3.33 18 3.66 18 4 C14.04 3.67 10.08 3.34 6 3 C6 2.34 6 1.68 6 1 C4.02 1 2.04 1 0 1 C0 0.67 0 0.34 0 0 Z " fill="#AAE1ED" transform="translate(232,352)"/>
<path d="M0 0 C0.66 0.33 1.32 0.66 2 1 C-0.18929847 4.28394771 -1.4613006 5.34860695 -5 7 C-8.8125 7.1875 -8.8125 7.1875 -12 7 C-9 5 -9 5 -6.5625 4.0625 C-4.0047537 3.00197104 -2.13703438 1.74128727 0 0 Z " fill="#94D2E7" transform="translate(280,327)"/>
<path d="M0 0 C0 0.99 0 1.98 0 3 C-3.22458954 4.61229477 -6.62471601 4.01501302 -10.17578125 3.9375 C-12.91079811 3.99802596 -15.34146987 4.38016055 -18 5 C-18 4.34 -18 3.68 -18 3 C-14.15109373 1.07554687 -9.43051935 1.52470193 -5.1875 1.28125 C-2.10577487 1.20574918 -2.10577487 1.20574918 0 0 Z " fill="#9DD9EA" transform="translate(244,330)"/>
<path d="M0 0 C0.94875 0.04125 1.8975 0.0825 2.875 0.125 C2.875 0.785 2.875 1.445 2.875 2.125 C3.535 2.455 4.195 2.785 4.875 3.125 C3.885 4.115 2.895 5.105 1.875 6.125 C-1.59 4.145 -1.59 4.145 -5.125 2.125 C-3.125 0.125 -3.125 0.125 0 0 Z " fill="#68CDE9" transform="translate(188.125,371.875)"/>
<path d="M0 0 C-0.1875 1.8125 -0.1875 1.8125 -1 4 C-5.17857143 7 -5.17857143 7 -8 7 C-7.8125 5.1875 -7.8125 5.1875 -7 3 C-2.82142857 0 -2.82142857 0 0 0 Z " fill="#90C6D8" transform="translate(285,369)"/>
<path d="M0 0 C1.32 0 2.64 0 4 0 C4 0.66 4 1.32 4 2 C4.94875 2.061875 5.8975 2.12375 6.875 2.1875 C7.90625 2.455625 8.9375 2.72375 10 3 C11.375 5.5625 11.375 5.5625 12 8 C7.44328408 6.48109469 3.68276708 4.04597738 0 1 C0 0.67 0 0.34 0 0 Z " fill="#72A2C9" transform="translate(181,273)"/>
<path d="M0 0 C0.66 0.33 1.32 0.66 2 1 C1.67 3.31 1.34 5.62 1 8 C0.01 8 -0.98 8 -2 8 C-2 7.34 -2 6.68 -2 6 C-2.66 6 -3.32 6 -4 6 C-3.6875 4.125 -3.6875 4.125 -3 2 C-2.01 1.34 -1.02 0.68 0 0 Z " fill="#4C89BA" transform="translate(339,168)"/>
<path d="M0 0 C1.98 0 3.96 0 6 0 C3.03716687 2.38672669 0.05729491 4.7353371 -3 7 C-3.66 6.67 -4.32 6.34 -5 6 C-5 5.01 -5 4.02 -5 3 C-3.35 2.67 -1.7 2.34 0 2 C0 1.34 0 0.68 0 0 Z " fill="#6196C3" transform="translate(322,398)"/>
<path d="M0 0 C-3.95795212 2.72109208 -6.49887337 4.41190203 -11.375 3.875 C-13.169375 3.441875 -13.169375 3.441875 -15 3 C-15.33 2.34 -15.66 1.68 -16 1 C-13.03 1.33 -10.06 1.66 -7 2 C-7 1.34 -7 0.68 -7 0 C-3.86650268 -1.04449911 -3.01031744 -0.93423645 0 0 Z " fill="#9DD5E4" transform="translate(271,382)"/>
<path d="M0 0 C1.32 0 2.64 0 4 0 C4 0.66 4 1.32 4 2 C5.98 1.67 7.96 1.34 10 1 C10 1.99 10 2.98 10 4 C9.34 4 8.68 4 8 4 C8 4.66 8 5.32 8 6 C4.63408134 4.55746343 2.48952921 2.66735273 0 0 Z " fill="#4D8DC3" transform="translate(136,241)"/>
<path d="M0 0 C3.99500618 1.3697164 6.80009492 3.25722422 10 6 C8.02 6.66 6.04 7.32 4 8 C4 6.68 4 5.36 4 4 C3.01 3.67 2.02 3.34 1 3 C0.67 2.01 0.34 1.02 0 0 Z " fill="#94D9E8" transform="translate(191,370)"/>
<path d="M0 0 C0.70189453 0.00451172 1.40378906 0.00902344 2.12695312 0.01367188 C3.85550538 0.02543073 5.58401365 0.04336546 7.3125 0.0625 C7.3125 0.7225 7.3125 1.3825 7.3125 2.0625 C6.20841797 2.04509766 6.20841797 2.04509766 5.08203125 2.02734375 C4.10621094 2.01832031 3.13039062 2.00929688 2.125 2 C1.16207031 1.98839844 0.19914063 1.97679687 -0.79296875 1.96484375 C-3.68504816 1.97024067 -3.68504816 1.97024067 -6.42578125 2.69140625 C-7.17214844 2.81386719 -7.91851562 2.93632812 -8.6875 3.0625 C-9.3475 2.4025 -10.0075 1.7425 -10.6875 1.0625 C-7.06882441 -0.1437252 -3.76243749 -0.04566918 0 0 Z " fill="#A3E0EC" transform="translate(236.6875,374.9375)"/>
<path d="M0 0 C4.47994538 -0.17568413 8.06493066 -0.29545711 12 2 C13.8125 4.625 13.8125 4.625 15 7 C12.67244268 5.83622134 10.3604735 4.65982633 8.0625 3.4375 C5.29656688 2.13920486 3.00318063 1.44164421 0 1 C0 0.67 0 0.34 0 0 Z " fill="#A4DDEE" transform="translate(180,361)"/>
<path d="M0 0 C-0.3125 1.9375 -0.3125 1.9375 -1 4 C-1.99 4.33 -2.98 4.66 -4 5 C-4.73323796 7.01508358 -4.73323796 7.01508358 -5 9 C-5.33 8.01 -5.66 7.02 -6 6 C-6.99 5.67 -7.98 5.34 -9 5 C-7.87926138 4.16094435 -6.75325453 3.32892169 -5.625 2.5 C-4.99851563 2.0359375 -4.37203125 1.571875 -3.7265625 1.09375 C-2 0 -2 0 0 0 Z " fill="#5995C7" transform="translate(250,402)"/>
<path d="M0 0 C2.64 0.33 5.28 0.66 8 1 C8 1.33 8 1.66 8 2 C7.39671875 2.12117188 6.7934375 2.24234375 6.171875 2.3671875 C5.37265625 2.53476562 4.5734375 2.70234375 3.75 2.875 C2.96109375 3.03742188 2.1721875 3.19984375 1.359375 3.3671875 C-0.96831144 3.99150075 -2.89031952 4.84838542 -5 6 C-4.67 4.68 -4.34 3.36 -4 2 C-2.68 2 -1.36 2 0 2 C0 1.34 0 0.68 0 0 Z " fill="#A4DAEC" transform="translate(230,403)"/>
<path d="M0 0 C0.99 0.66 1.98 1.32 3 2 C3 2.99 3 3.98 3 5 C0.36 5.33 -2.28 5.66 -5 6 C-4.75 4.125 -4.75 4.125 -4 2 C-1.9375 0.75 -1.9375 0.75 0 0 Z " fill="#69CCEF" transform="translate(222,403)"/>
<path d="M0 0 C0.66 0.33 1.32 0.66 2 1 C1.01 2.485 1.01 2.485 0 4 C-2.75 4.36328125 -2.75 4.36328125 -6 4.3125 C-7.60875 4.30669922 -7.60875 4.30669922 -9.25 4.30078125 C-12 4 -12 4 -14 2 C-13.40832031 2.02320313 -12.81664062 2.04640625 -12.20703125 2.0703125 C-7.57492284 2.1761029 -4.28095618 1.94588917 0 0 Z " fill="#9DDEED" transform="translate(216,345)"/>
<path d="M0 0 C1.98 0 3.96 0 6 0 C6 0.66 6 1.32 6 2 C6.99 2.33 7.98 2.66 9 3 C9 3.99 9 4.98 9 6 C7.68 5.67 6.36 5.34 5 5 C5 4.34 5 3.68 5 3 C2.525 2.01 2.525 2.01 0 1 C0 0.67 0 0.34 0 0 Z " fill="#5790BF" transform="translate(127,235)"/>
<path d="M0 0 C-0.33 0.99 -0.66 1.98 -1 3 C-0.34 3 0.32 3 1 3 C1.33 3.99 1.66 4.98 2 6 C-1.93673644 4.68775452 -4.22719294 3.08089673 -7 0 C-3.98968256 -0.93423645 -3.13349732 -1.04449911 0 0 Z " fill="#649EC9" transform="translate(150,417)"/>
<path d="M0 0 C2.9719385 1.12451727 5.33440687 2.22293791 8 4 C6.576875 4.4640625 6.576875 4.4640625 5.125 4.9375 C2.13919592 5.87394742 2.13919592 5.87394742 0 7 C0 4.69 0 2.38 0 0 Z " fill="#85D0E8" transform="translate(254,373)"/>
<path d="M0 0 C4.30764815 1.56641751 8.06171464 3.68336156 12 6 C12 6.33 12 6.66 12 7 C10.35 7 8.7 7 7 7 C7 6.34 7 5.68 7 5 C6.21625 4.9175 5.4325 4.835 4.625 4.75 C2 4 2 4 0.6875 1.9375 C0.460625 1.298125 0.23375 0.65875 0 0 Z " fill="#A1DAEB" transform="translate(248,326)"/>
<path d="M0 0 C-0.33 1.32 -0.66 2.64 -1 4 C-2.65 4.33 -4.3 4.66 -6 5 C-6 5.66 -6 6.32 -6 7 C-7.32 6.67 -8.64 6.34 -10 6 C-8.71283353 4.99421411 -7.42011342 3.99553202 -6.125 3 C-5.40570313 2.443125 -4.68640625 1.88625 -3.9453125 1.3125 C-2 0 -2 0 0 0 Z " fill="#68A2C9" transform="translate(241,408)"/>
<path d="M0 0 C0.66 0.33 1.32 0.66 2 1 C1.01 1.33 0.02 1.66 -1 2 C-1 2.66 -1 3.32 -1 4 C-4.63 3.67 -8.26 3.34 -12 3 C-12 2.34 -12 1.68 -12 1 C-11.07767578 1.01740234 -11.07767578 1.01740234 -10.13671875 1.03515625 C-8.92435547 1.04869141 -8.92435547 1.04869141 -7.6875 1.0625 C-6.88699219 1.07410156 -6.08648437 1.08570313 -5.26171875 1.09765625 C-2.83138666 1.09657855 -2.83138666 1.09657855 0 0 Z " fill="#9EDDE8" transform="translate(214,375)"/>
<path d="M0 0 C1.98 0.99 3.96 1.98 6 3 C4.35 4.32 2.7 5.64 1 7 C-1 4 -1 4 -0.625 1.8125 C-0.41875 1.214375 -0.2125 0.61625 0 0 Z " fill="#87D6E8" transform="translate(164,346)"/>
<path d="M0 0 C3.99500618 1.3697164 6.80009492 3.25722422 10 6 C9.05125 5.814375 8.1025 5.62875 7.125 5.4375 C4.10131207 4.71313368 4.10131207 4.71313368 2 6 C1.34 4.02 0.68 2.04 0 0 Z " fill="#8ED4E7" transform="translate(191,341)"/>
<path d="M0 0 C4.3177458 0.50797009 8.03302114 1.19682779 12 3 C11.67 3.66 11.34 4.32 11 5 C9.35153231 4.55123384 7.70626545 4.09069512 6.0625 3.625 C5.14597656 3.36976563 4.22945312 3.11453125 3.28515625 2.8515625 C1 2 1 2 0 0 Z " fill="#9BD9E7" transform="translate(239,338)"/>
<path d="M0 0 C3.63 0 7.26 0 11 0 C11 0.33 11 0.66 11 1 C5.555 2.485 5.555 2.485 0 4 C0 2.68 0 1.36 0 0 Z " fill="#9DD7E6" transform="translate(283,332)"/>
<path d="M0 0 C2.48046875 1.08203125 2.48046875 1.08203125 5 3 C5.48828125 6.13671875 5.48828125 6.13671875 5.3125 9.6875 C5.26738281 10.86699219 5.22226563 12.04648437 5.17578125 13.26171875 C5.11777344 14.16535156 5.05976563 15.06898438 5 16 C4.67 16 4.34 16 4 16 C3.67 12.04 3.34 8.08 3 4 C2.34 4 1.68 4 1 4 C0.67 2.68 0.34 1.36 0 0 Z " fill="#5086B4" transform="translate(138,253)"/>
<path d="M0 0 C0.66 0.33 1.32 0.66 2 1 C1.67 1.66 1.34 2.32 1 3 C2.98 2.67 4.96 2.34 7 2 C7 2.99 7 3.98 7 5 C4.36 5 1.72 5 -1 5 C-0.67 3.35 -0.34 1.7 0 0 Z " fill="#73CDE1" transform="translate(151,351)"/>
<path d="M0 0 C-0.33 0.99 -0.66 1.98 -1 3 C-4.3 3.33 -7.6 3.66 -11 4 C-6.63257174 0.72442881 -5.35208648 0 0 0 Z " fill="#94D9EB" transform="translate(176,338)"/>
<path d="M0 0 C1.32 0.33 2.64 0.66 4 1 C0.25 4 0.25 4 -2 4 C-2 4.66 -2 5.32 -2 6 C-2.99 6.33 -3.98 6.66 -5 7 C-4.67 5.35 -4.34 3.7 -4 2 C-2.68 2 -1.36 2 0 2 C0 1.34 0 0.68 0 0 Z " fill="#6999C3" transform="translate(240,285)"/>
<path d="M0 0 C1.27875 0.103125 2.5575 0.20625 3.875 0.3125 C4.95394531 0.39951172 4.95394531 0.39951172 6.0546875 0.48828125 C8 1 8 1 10 4 C8 5 8 5 5.5625 4.25 C3.14147089 3.06901019 1.74181991 2.0168441 0 0 Z " fill="#518BBD" transform="translate(164,261)"/>
<path d="M0 0 C0.33 0.66 0.66 1.32 1 2 C-1.97 3.65 -4.94 5.3 -8 7 C-7.67 5.68 -7.34 4.36 -7 3 C-3.4375 1.25 -3.4375 1.25 0 0 Z " fill="#528BBC" transform="translate(274,215)"/>
<path d="M0 0 C7.57142857 4.14285714 7.57142857 4.14285714 10 7 C7.69 6.67 5.38 6.34 3 6 C2.67 4.68 2.34 3.36 2 2 C1.34 2 0.68 2 0 2 C0 1.34 0 0.68 0 0 Z " fill="#5E96C0" transform="translate(137,192)"/>
<path d="M0 0 C2.64 0.66 5.28 1.32 8 2 C8 1.34 8 0.68 8 0 C9.32 0.33 10.64 0.66 12 1 C10.3125 2.5625 10.3125 2.5625 8 4 C4.96115373 3.8517636 3.49793707 3.42925609 1.1875 1.4375 C0.795625 0.963125 0.40375 0.48875 0 0 Z " fill="#9AD7E3" transform="translate(244,391)"/>
<path d="M0 0 C3.7910119 1.44950455 7.3874638 3.15172566 11 5 C11 5.33 11 5.66 11 6 C9.02 6 7.04 6 5 6 C4.67 5.01 4.34 4.02 4 3 C1.03 2.505 1.03 2.505 -2 2 C-1.34 1.34 -0.68 0.68 0 0 Z " fill="#9FDBEC" transform="translate(192,385)"/>
<path d="M0 0 C-0.98093954 2.45234885 -1.68703828 3.7809268 -3.875 5.3125 C-6.37345514 6.12082372 -7.52928976 5.71847013 -10 5 C-8.71186658 4.16121545 -7.41936744 3.32913217 -6.125 2.5 C-5.40570313 2.0359375 -4.68640625 1.571875 -3.9453125 1.09375 C-2 0 -2 0 0 0 Z " fill="#6B9CC3" transform="translate(275,385)"/>
<path d="M0 0 C1.32 0 2.64 0 4 0 C4 0.99 4 1.98 4 3 C4.66 3 5.32 3 6 3 C6 3.66 6 4.32 6 5 C3.625 4.6875 3.625 4.6875 1 4 C0.34 3.01 -0.32 2.02 -1 1 C-0.67 0.67 -0.34 0.34 0 0 Z " fill="#6AC8E9" transform="translate(180,382)"/>
<path d="M0 0 C0.66 0.33 1.32 0.66 2 1 C1 4 1 4 -1.375 5.3125 C-2.24125 5.539375 -3.1075 5.76625 -4 6 C-4.99 5.34 -5.98 4.68 -7 4 C-1.7265625 0.77734375 -1.7265625 0.77734375 0 0 Z " fill="#91D4E9" transform="translate(280,356)"/>
<path d="M0 0 C3.26954202 0.56371414 4.82575883 1.49962266 7 4 C5.02 4 3.04 4 1 4 C0.67 4.99 0.34 5.98 0 7 C0 4.69 0 2.38 0 0 Z " fill="#6F9BC4" transform="translate(102,229)"/>
<path d="M0 0 C2.31 0 4.62 0 7 0 C7.33 1.65 7.66 3.3 8 5 C4.62496331 3.8141763 2.35277269 2.72426311 0 0 Z " fill="#8BD3E9" transform="translate(247,335)"/>
<path d="M0 0 C0 0.99 0 1.98 0 3 C-1.98 3.33 -3.96 3.66 -6 4 C-6.33 4.99 -6.66 5.98 -7 7 C-7.99 6.34 -8.98 5.68 -10 5 C-8.71186658 4.16121545 -7.41936744 3.32913217 -6.125 2.5 C-5.40570313 2.0359375 -4.68640625 1.571875 -3.9453125 1.09375 C-2 0 -2 0 0 0 Z " fill="#A2DBED" transform="translate(225,312)"/>
<path d="M0 0 C3.5786304 1.65167557 6.74820188 3.78286492 10 6 C7 7 7 7 4 6 C4 5.34 4 4.68 4 4 C3.01 3.67 2.02 3.34 1 3 C0.67 2.01 0.34 1.02 0 0 Z " fill="#6D9FC4" transform="translate(160,208)"/>
<path d="M0 0 C-4.75 3 -4.75 3 -7 3 C-7 3.66 -7 4.32 -7 5 C-7.66 4.67 -8.32 4.34 -9 4 C-8.1875 2.0625 -8.1875 2.0625 -7 0 C-3.86650268 -1.04449911 -3.01031744 -0.93423645 0 0 Z " fill="#719FC9" transform="translate(292,424)"/>
<path d="M0 0 C2.9375 1.3125 2.9375 1.3125 6 3 C6.33 3.99 6.66 4.98 7 6 C5.35 6 3.7 6 2 6 C1.34 4.02 0.68 2.04 0 0 Z " fill="#5E98C5" transform="translate(216,417)"/>
<path d="M0 0 C2.31 0 4.62 0 7 0 C4.63707344 2.52588702 3.33537489 3.88820837 0 5 C0 3.35 0 1.7 0 0 Z " fill="#5997C3" transform="translate(293,417)"/>
<path d="M0 0 C3.63 0 7.26 0 11 0 C11.66 1.32 12.32 2.64 13 4 C11.7315625 3.5359375 11.7315625 3.5359375 10.4375 3.0625 C6.9502146 1.98461179 3.61822465 1.43418696 0 1 C0 0.67 0 0.34 0 0 Z " fill="#A4DFEE" transform="translate(176,375)"/>
<path d="M0 0 C1.32 0.66 2.64 1.32 4 2 C3.67 2.66 3.34 3.32 3 4 C2.01 4 1.02 4 0 4 C-0.33 4.66 -0.66 5.32 -1 6 C-1.66 4.68 -2.32 3.36 -3 2 C-2.01 1.34 -1.02 0.68 0 0 Z " fill="#87D5E8" transform="translate(165,370)"/>
<path d="M0 0 C2.97 0.495 2.97 0.495 6 1 C3.47043472 4.0916909 0.77545388 4.90931332 -3 6 C-2.67 5.34 -2.34 4.68 -2 4 C-1.34 4 -0.68 4 0 4 C0 2.68 0 1.36 0 0 Z " fill="#A2DBED" transform="translate(218,350)"/>
<path d="M0 0 C0 0.99 0 1.98 0 3 C-4.43076923 5.09230769 -4.43076923 5.09230769 -7.3125 4.625 C-7.869375 4.41875 -8.42625 4.2125 -9 4 C-2.25 0 -2.25 0 0 0 Z " fill="#9AD7EC" transform="translate(285,340)"/>
<path d="M0 0 C2.475 0.99 2.475 0.99 5 2 C0.25 5.875 0.25 5.875 -2 7 C-1.34 4.69 -0.68 2.38 0 0 Z " fill="#5A97C4" transform="translate(247,278)"/>
<path d="M0 0 C2.64 1.65 5.28 3.3 8 5 C7.34 5.66 6.68 6.32 6 7 C6 6.34 6 5.68 6 5 C3.03 4.505 3.03 4.505 0 4 C0 2.68 0 1.36 0 0 Z " fill="#78A5CA" transform="translate(208,241)"/>
<path d="M0 0 C-5.14285714 4.42857143 -5.14285714 4.42857143 -9 5 C-9 4.34 -9 3.68 -9 3 C-8.34 3 -7.68 3 -7 3 C-7 2.34 -7 1.68 -7 1 C-4.53721199 -0.231394 -2.7204945 -0.07159196 0 0 Z " fill="#95D8E7" transform="translate(228,378)"/>
<path d="M0 0 C-3.08809695 1.76462683 -4.23312136 2 -8 2 C-8.66 1.34 -9.32 0.68 -10 0 C-6.42355152 -1.2380014 -3.66305234 -0.74926071 0 0 Z " fill="#A0D3EB" transform="translate(175,376)"/>
<path d="M0 0 C1.98 0.66 3.96 1.32 6 2 C6 2.33 6 2.66 6 3 C3.36 3.66 0.72 4.32 -2 5 C-2 4.01 -2 3.02 -2 2 C-1.34 2 -0.68 2 0 2 C0 1.34 0 0.68 0 0 Z " fill="#98D9EA" transform="translate(287,359)"/>
<path d="M0 0 C3.96 0 7.92 0 12 0 C12 0.33 12 0.66 12 1 C8.04 1.66 4.08 2.32 0 3 C0 2.01 0 1.02 0 0 Z " fill="#A8E0F0" transform="translate(228,346)"/>
<path d="M0 0 C2.97 0.495 2.97 0.495 6 1 C6.33 1.99 6.66 2.98 7 4 C7.66 4.33 8.32 4.66 9 5 C8.67 5.66 8.34 6.32 8 7 C6.66382648 6.02471263 5.3311249 5.04466681 4 4.0625 C3.2575 3.51722656 2.515 2.97195312 1.75 2.41015625 C1.1725 1.94480469 0.595 1.47945312 0 1 C0 0.67 0 0.34 0 0 Z " fill="#80AFCE" transform="translate(153,253)"/>
<path d="M0 0 C1.9375 0.375 1.9375 0.375 4 1 C4.33 1.66 4.66 2.32 5 3 C4.01 3.99 3.02 4.98 2 6 C1.34 5.67 0.68 5.34 0 5 C0 3.35 0 1.7 0 0 Z " fill="#387FB9" transform="translate(144,243)"/>
<path d="M0 0 C1.8125 0.1875 1.8125 0.1875 4 1 C5.75 3.5625 5.75 3.5625 7 6 C2.32307692 4.52307692 2.32307692 4.52307692 0.6875 1.875 C0.460625 1.25625 0.23375 0.6375 0 0 Z " fill="#5C95BE" transform="translate(207,460)"/>
<path d="M0 0 C1.32 0.66 2.64 1.32 4 2 C3.01 2.66 2.02 3.32 1 4 C1.66 4 2.32 4 3 4 C2.67 4.66 2.34 5.32 2 6 C-0.475 5.01 -0.475 5.01 -3 4 C-2.67 3.34 -2.34 2.68 -2 2 C-1.34 2 -0.68 2 0 2 C0 1.34 0 0.68 0 0 Z " fill="#468CC5" transform="translate(211,414)"/>
<path d="M0 0 C3 3.46153846 3 3.46153846 3 6 C0.11562221 4.70700306 -1.87219421 3.34058637 -4 1 C-2 0 -2 0 0 0 Z " fill="#5799C1" transform="translate(107,388)"/>
<path d="M0 0 C-1.97420135 2.52259061 -2.96745642 2.9929808 -6.1875 3.6875 C-7.5796875 3.8421875 -7.5796875 3.8421875 -9 4 C-9 3.01 -9 2.02 -9 1 C-5.92677456 0.08941469 -3.19902639 -0.08886184 0 0 Z " fill="#78CBE5" transform="translate(285,349)"/>
<path d="M0 0 C2.31 0 4.62 0 7 0 C7 0.66 7 1.32 7 2 C4.69 2.33 2.38 2.66 0 3 C0 2.01 0 1.02 0 0 Z " fill="#8CD4E6" transform="translate(169,317)"/>
<path d="M0 0 C-5.41538462 4.06153846 -5.41538462 4.06153846 -8.375 3.75 C-8.91125 3.5025 -9.4475 3.255 -10 3 C-3.375 -1.125 -3.375 -1.125 0 0 Z " fill="#A0DCE9" transform="translate(230,398)"/>
<path d="M0 0 C1.98 0.495 1.98 0.495 4 1 C4 2.32 4 3.64 4 5 C1.525 4.01 1.525 4.01 -1 3 C-0.67 2.01 -0.34 1.02 0 0 Z " fill="#67CDEB" transform="translate(222,387)"/>
<path d="M0 0 C2.31 0.33 4.62 0.66 7 1 C7 1.66 7 2.32 7 3 C4.69 2.67 2.38 2.34 0 2 C0 1.34 0 0.68 0 0 Z " fill="#6EC9E1" transform="translate(157,350)"/>
<path d="M0 0 C0.99 0.33 1.98 0.66 3 1 C3 1.66 3 2.32 3 3 C4.32 3.33 5.64 3.66 7 4 C7 4.99 7 5.98 7 7 C4.36 5.35 1.72 3.7 -1 2 C-0.67 1.34 -0.34 0.68 0 0 Z " fill="#A7DDF1" transform="translate(243,346)"/>
<path d="M0 0 C-0.33 0.99 -0.66 1.98 -1 3 C-2.98 3 -4.96 3 -7 3 C-7 2.34 -7 1.68 -7 1 C-4 0 -4 0 0 0 Z " fill="#8ED0E5" transform="translate(217,332)"/>
<path d="M0 0 C0 0.99 0 1.98 0 3 C-2.31 3.33 -4.62 3.66 -7 4 C-6.67 3.01 -6.34 2.02 -6 1 C-3 0 -3 0 0 0 Z " fill="#66CDE1" transform="translate(255,331)"/>
<path d="M0 0 C0.99 0.33 1.98 0.66 3 1 C2.67 1.99 2.34 2.98 2 4 C0.35 4 -1.3 4 -3 4 C-2.67 3.01 -2.34 2.02 -2 1 C-1.34 0.67 -0.68 0.34 0 0 Z " fill="#6CCAEA" transform="translate(168,327)"/>
<path d="M0 0 C1.32 0.66 2.64 1.32 4 2 C3.67 2.99 3.34 3.98 3 5 C1.0625 4.625 1.0625 4.625 -1 4 C-1.33 3.34 -1.66 2.68 -2 2 C-1.34 2 -0.68 2 0 2 C0 1.34 0 0.68 0 0 Z " fill="#3787C1" transform="translate(196,233)"/>
<path d="M0 0 C1.98 0.99 3.96 1.98 6 3 C5.67 3.66 5.34 4.32 5 5 C2.69 4.67 0.38 4.34 -2 4 C-1.34 2.68 -0.68 1.36 0 0 Z " fill="#5490C1" transform="translate(109,233)"/>
<path d="" fill="#FFFFFF" transform="translate(0,0)"/>
<path d="" fill="#FFFFFF" transform="translate(0,0)"/>
<path d="" fill="#FFFFFF" transform="translate(0,0)"/>
<path d="" fill="#FFFFFF" transform="translate(0,0)"/>
<path d="" fill="#FFFFFF" transform="translate(0,0)"/>
<path d="" fill="#FFFFFF" transform="translate(0,0)"/>
<path d="" fill="#FFFFFF" transform="translate(0,0)"/>
<path d="" fill="#FFFFFF" transform="translate(0,0)"/>
<path d="" fill="#FFFFFF" transform="translate(0,0)"/>
<path d="" fill="#FFFFFF" transform="translate(0,0)"/>
<path d="" fill="#FFFFFF" transform="translate(0,0)"/>
<path d="" fill="#FFFFFF" transform="translate(0,0)"/>
<path d="" fill="#FFFFFF" transform="translate(0,0)"/>
<path d="" fill="#FFFFFF" transform="translate(0,0)"/>
<path d="" fill="#FFFFFF" transform="translate(0,0)"/>
<path d="" fill="#FFFFFF" transform="translate(0,0)"/>
<path d="" fill="#FFFFFF" transform="translate(0,0)"/>
<path d="" fill="#FFFFFF" transform="translate(0,0)"/>
<path d="" fill="#FFFFFF" transform="translate(0,0)"/>
<path d="" fill="#FFFFFF" transform="translate(0,0)"/>
<path d="" fill="#FFFFFF" transform="translate(0,0)"/>
<path d="" fill="#FFFFFF" transform="translate(0,0)"/>
<path d="" fill="#FFFFFF" transform="translate(0,0)"/>
<path d="" fill="#FFFFFF" transform="translate(0,0)"/>
<path d="" fill="#FFFFFF" transform="translate(0,0)"/>
<path d="" fill="#FFFFFF" transform="translate(0,0)"/>
<path d="" fill="#FFFFFF" transform="translate(0,0)"/>
<path d="" fill="#FFFFFF" transform="translate(0,0)"/>
<path d="" fill="#FFFFFF" transform="translate(0,0)"/>
<path d="" fill="#FFFFFF" transform="translate(0,0)"/>
<path d="" fill="#FFFFFF" transform="translate(0,0)"/>
<path d="" fill="#FFFFFF" transform="translate(0,0)"/>
<path d="" fill="#FFFFFF" transform="translate(0,0)"/>
<path d="" fill="#FFFFFF" transform="translate(0,0)"/>
<path d="" fill="#FFFFFF" transform="translate(0,0)"/>
<path d="" fill="#FFFFFF" transform="translate(0,0)"/>
<path d="" fill="#FFFFFF" transform="translate(0,0)"/>
<path d="" fill="#FFFFFF" transform="translate(0,0)"/>
<path d="" fill="#FFFFFF" transform="translate(0,0)"/>
<path d="" fill="#FFFFFF" transform="translate(0,0)"/>
<path d="" fill="#FFFFFF" transform="translate(0,0)"/>
<path d="" fill="#FFFFFF" transform="translate(0,0)"/>
<path d="" fill="#FFFFFF" transform="translate(0,0)"/>
<path d="" fill="#FFFFFF" transform="translate(0,0)"/>
<path d="" fill="#FFFFFF" transform="translate(0,0)"/>
<path d="" fill="#FFFFFF" transform="translate(0,0)"/>
<path d="" fill="#FFFFFF" transform="translate(0,0)"/>
<path d="" fill="#FFFFFF" transform="translate(0,0)"/>
<path d="" fill="#FFFFFF" transform="translate(0,0)"/>
<path d="" fill="#FFFFFF" transform="translate(0,0)"/>
<path d="" fill="#FFFFFF" transform="translate(0,0)"/>
<path d="" fill="#FFFFFF" transform="translate(0,0)"/>
<path d="" fill="#FFFFFF" transform="translate(0,0)"/>
<path d="" fill="#FFFFFF" transform="translate(0,0)"/>
<path d="" fill="#FFFFFF" transform="translate(0,0)"/>
<path d="" fill="#FFFFFF" transform="translate(0,0)"/>
<path d="" fill="#FFFFFF" transform="translate(0,0)"/>
<path d="" fill="#FFFFFF" transform="translate(0,0)"/>
<path d="" fill="#FFFFFF" transform="translate(0,0)"/>
<path d="" fill="#FFFFFF" transform="translate(0,0)"/>
<path d="" fill="#FFFFFF" transform="translate(0,0)"/>
<path d="" fill="#FFFFFF" transform="translate(0,0)"/>
<path d="" fill="#FFFFFF" transform="translate(0,0)"/>
<path d="" fill="#FFFFFF" transform="translate(0,0)"/>
<path d="" fill="#FFFFFF" transform="translate(0,0)"/>
<path d="" fill="#FFFFFF" transform="translate(0,0)"/>
<path d="" fill="#FFFFFF" transform="translate(0,0)"/>
<path d="" fill="#FFFFFF" transform="translate(0,0)"/>
<path d="" fill="#FFFFFF" transform="translate(0,0)"/>
<path d="" fill="#FFFFFF" transform="translate(0,0)"/>
<path d="" fill="#FFFFFF" transform="translate(0,0)"/>
<path d="" fill="#FFFFFF" transform="translate(0,0)"/>
<path d="" fill="#FFFFFF" transform="translate(0,0)"/>
<path d="" fill="#FFFFFF" transform="translate(0,0)"/>
<path d="" fill="#FFFFFF" transform="translate(0,0)"/>
<path d="" fill="#FFFFFF" transform="translate(0,0)"/>
<path d="" fill="#FFFFFF" transform="translate(0,0)"/>
<path d="" fill="#FFFFFF" transform="translate(0,0)"/>
<path d="" fill="#FFFFFF" transform="translate(0,0)"/>
<path d="" fill="#FFFFFF" transform="translate(0,0)"/>
<path d="" fill="#FFFFFF" transform="translate(0,0)"/>
<path d="" fill="#FFFFFF" transform="translate(0,0)"/>
<path d="" fill="#FFFFFF" transform="translate(0,0)"/>
<path d="" fill="#FFFFFF" transform="translate(0,0)"/>
<path d="" fill="#FFFFFF" transform="translate(0,0)"/>
</svg>
