<?xml version="1.0" encoding="UTF-8"?>
<svg version="1.1" xmlns="http://www.w3.org/2000/svg" width="861" height="1133">
<path d="M0 0 C284.13 0 568.26 0 861 0 C861 373.89 861 747.78 861 1133 C576.87 1133 292.74 1133 0 1133 C0 759.11 0 385.22 0 0 Z " fill="#FEFEFE" transform="translate(0,0)"/>
<path d="M0 0 C0.25166219 55.04235394 0.44554746 110.08464985 0.56171862 165.12746573 C0.57547674 171.62265713 0.58971426 178.1178474 0.60424805 184.61303711 C0.60713346 185.90613713 0.61001888 187.19923716 0.61299173 188.53152203 C0.66088372 209.48174805 0.74762894 230.43164276 0.84868076 251.38167209 C0.95147161 272.87113104 1.01263043 294.36041623 1.03497344 315.85011095 C1.05008282 329.11545235 1.097838 342.3798574 1.18708114 355.64491063 C1.24513351 364.73571491 1.26282256 373.82603367 1.24851515 382.91700996 C1.24145438 388.16598546 1.25243293 393.41332261 1.31126022 398.66200829 C1.36471485 403.46632809 1.36755373 408.26790538 1.32988784 413.07235032 C1.32523186 414.81141485 1.33926182 416.55064908 1.37371501 418.28937853 C1.61652957 431.29834065 1.61652957 431.29834065 -2.37598836 435.50111282 C-5.18453291 437.30563115 -7.95167779 438.65305105 -11 440 C-12.55615341 441.04399177 -14.09168327 442.12046174 -15.58984375 443.24609375 C-16.30446777 443.76872803 -17.0190918 444.2913623 -17.75537109 444.82983398 C-18.47547363 445.36036377 -19.19557617 445.89089355 -19.9375 446.4375 C-25.77344921 450.69471455 -31.65566222 454.82397354 -37.6953125 458.7890625 C-42.09328563 461.73144169 -46.42015629 464.77105871 -50.75 467.8125 C-56.81333699 472.07150071 -62.88608973 476.31388523 -69 480.5 C-75.72843155 485.1100488 -82.41430989 489.77900349 -89.0925293 494.46142578 C-98.40338277 500.98827678 -107.73997157 507.47795859 -117.07666016 513.96777344 C-120.92925483 516.64599275 -124.78096601 519.32548082 -128.63256836 522.00512695 C-130.54344554 523.33452478 -132.45441553 524.66378921 -134.36547852 525.99291992 C-139.20877484 529.3615065 -144.05082412 532.73186168 -148.890625 536.10546875 C-157.79960333 542.31325373 -166.71675799 548.50671453 -175.6875 554.625 C-182.89856223 559.54369396 -190.06554818 564.52189242 -197.20825195 569.53930664 C-201.84874926 572.79820237 -206.49924679 576.04160618 -211.1640625 579.265625 C-212.19821289 579.98129639 -213.23236328 580.69696777 -214.29785156 581.43432617 C-216.30082502 582.81959431 -218.3053066 584.20268521 -220.31152344 585.58325195 C-224.17399316 588.25713873 -227.93394904 590.86607746 -231.4140625 594.02734375 C-234 596 -234 596 -236.01171875 596.06640625 C-238.8014363 594.57015302 -241.2637541 592.81998927 -243.8125 590.9375 C-245.06916965 590.02056707 -246.32707265 589.10532304 -247.5859375 588.19140625 C-248.28428711 587.68367676 -248.98263672 587.17594727 -249.70214844 586.65283203 C-254.07628025 583.506543 -258.51020005 580.4457809 -262.9375 577.375 C-263.91952393 576.69300537 -264.90154785 576.01101074 -265.91333008 575.30834961 C-267.9353446 573.90416832 -269.95756313 572.50028075 -271.97998047 571.09667969 C-276.82249018 567.73471741 -281.66107877 564.36712409 -286.5 561 C-288.40754223 559.67316291 -290.31509434 558.34634003 -292.22265625 557.01953125 C-296.14797371 554.28896269 -300.07233649 551.55702875 -303.99609375 548.82421875 C-316.47747296 540.13236945 -316.47747296 540.13236945 -329 531.5 C-340.38218151 523.69414662 -351.69348466 515.78580638 -363.01855469 507.89746094 C-365.99126996 505.82709083 -368.96427089 503.75713212 -371.9375 501.6875 C-372.89938232 501.0179126 -373.86126465 500.3483252 -374.85229492 499.65844727 C-380.34688322 495.8364742 -385.85342938 492.03286328 -391.375 488.25 C-397.33810356 484.16330247 -403.25184084 480.01073347 -409.15161133 475.83325195 C-421.88282967 466.82747204 -434.69650814 457.93703886 -447.5625 449.125 C-452.72213921 445.58959348 -457.84592947 442.00782676 -462.9375 438.375 C-463.83480835 437.73522217 -463.83480835 437.73522217 -464.75024414 437.08251953 C-468.87058229 434.12941771 -468.87058229 434.12941771 -470 433 C-470.09720116 431.3371109 -470.12371545 429.67005995 -470.12304783 428.00433254 C-470.12503888 426.91552207 -470.12702993 425.82671161 -470.12908131 424.70490688 C-470.12616847 423.49384385 -470.12325563 422.28278083 -470.12025452 421.03501892 C-470.12110894 419.76009616 -470.12196337 418.4851734 -470.12284368 417.17161661 C-470.12509104 413.61657372 -470.12106409 410.06156067 -470.11606562 406.50652158 C-470.11176474 402.67896419 -470.11320729 398.85140861 -470.1139679 395.02384949 C-470.11449336 388.38694291 -470.1113442 381.75004613 -470.10573006 375.11314201 C-470.09761811 365.51718141 -470.09500015 355.92122556 -470.09374207 346.3252619 C-470.09155106 330.75809834 -470.08488968 315.19094001 -470.07543945 299.6237793 C-470.06626658 284.497803 -470.05918514 269.37182812 -470.05493164 254.24584961 C-470.05466892 253.31416971 -470.05440619 252.38248982 -470.05413551 251.42257719 C-470.05283051 246.74881761 -470.05156679 242.07505801 -470.05032361 237.4012984 C-470.03994949 198.60086194 -470.02232987 159.80043132 -470 121 C-466.56270717 122.33152834 -463.70458446 123.72869198 -460.69921875 125.87109375 C-459.89548828 126.43957031 -459.09175781 127.00804687 -458.26367188 127.59375 C-457.41353516 128.2021875 -456.56339844 128.810625 -455.6875 129.4375 C-453.87931483 130.71802505 -452.0707164 131.99796674 -450.26171875 133.27734375 C-449.36759277 133.91140137 -448.4734668 134.54545898 -447.55224609 135.19873047 C-444.05712591 137.66544146 -440.53200548 140.08654625 -437 142.5 C-430.93567425 146.65525776 -424.89859606 150.84841734 -418.875 155.0625 C-418.03138916 155.65248779 -417.18777832 156.24247559 -416.31860352 156.8503418 C-412.43690332 159.57066569 -408.56562591 162.30330012 -404.72265625 165.078125 C-404.0776416 165.543396 -403.43262695 166.00866699 -402.76806641 166.48803711 C-401.58414508 167.34463529 -400.40265245 168.20460468 -399.22412109 169.06860352 C-396.80589162 170.82011082 -394.85800254 172.04733249 -392 173 C-392.01328213 174.11576227 -392.02656425 175.23152454 -392.04024887 176.38109779 C-392.35925352 203.56607111 -392.56242686 230.75004574 -392.64509201 257.93679237 C-392.68773417 271.08457254 -392.76760695 284.23013296 -392.93603516 297.37695312 C-393.08279454 308.83984313 -393.15877456 320.30067923 -393.15080285 331.76454389 C-393.1490284 337.83226557 -393.18197839 343.89519627 -393.29979706 349.9618721 C-393.40975828 355.68166538 -393.42452654 361.39407561 -393.36855507 367.11457634 C-393.36446196 369.20524576 -393.39417058 371.29631866 -393.46148491 373.38590813 C-393.9431695 384.58098798 -393.9431695 384.58098798 -389.0278635 394.20807028 C-384.20749428 398.37230357 -378.92215023 401.6079302 -373.35631895 404.67465854 C-370.26357337 406.4142125 -367.44869445 408.39743705 -364.578125 410.48046875 C-362.80236379 411.71654884 -361.02632978 412.95223713 -359.25 414.1875 C-358.28666748 414.85765137 -357.32333496 415.52780273 -356.33081055 416.21826172 C-350.83632566 420.03760436 -345.33172668 423.84151682 -339.8125 427.625 C-333.1471086 432.19457686 -326.52367903 436.82252323 -319.90673828 441.46191406 C-310.60648251 447.98142682 -301.28030306 454.46348433 -291.95410156 460.94580078 C-288.96586823 463.02373427 -285.97885136 465.10340516 -282.9921875 467.18359375 C-269.25655317 476.7593353 -269.25655317 476.7593353 -255.45825195 486.24438477 C-252.36387049 488.35653916 -249.2993432 490.49762716 -246.2734375 492.70703125 C-245.67869629 493.1357251 -245.08395508 493.56441895 -244.47119141 494.00610352 C-242.86489338 495.16696712 -241.26799949 496.34081256 -239.671875 497.515625 C-237.23318846 499.20786351 -237.23318846 499.20786351 -235.13671875 498.79345703 C-232.4773633 497.80592216 -230.4574379 496.42876929 -228.140625 494.7890625 C-227.19807861 494.12696777 -226.25553223 493.46487305 -225.28442383 492.78271484 C-224.28306396 492.07066895 -223.2817041 491.35862305 -222.25 490.625 C-220.15520622 489.15067459 -218.06015338 487.6767172 -215.96484375 486.203125 C-214.42932861 485.1193457 -214.42932861 485.1193457 -212.86279297 484.01367188 C-209.1997934 481.43713935 -205.51035896 478.90110743 -201.8125 476.375 C-195.14630514 471.8066127 -188.52366325 467.17746571 -181.90673828 462.53808594 C-172.60648251 456.01857318 -163.28030306 449.53651567 -153.95410156 443.05419922 C-150.96586823 440.97626573 -147.97885136 438.89659484 -144.9921875 436.81640625 C-135.98999714 430.54747146 -126.98299487 424.28696129 -117.93286133 418.08740234 C-112.51166961 414.36726383 -107.13081202 410.59071909 -101.75 406.8125 C-80.61709858 392 -80.61709858 392 -78 392 C-78 312.14 -78 232.28 -78 150 C-83.77450628 153.28053006 -83.77450628 153.28053006 -89.25 156.890625 C-90.01094971 157.42671387 -90.77189941 157.96280273 -91.5559082 158.51513672 C-92.3624585 159.0876416 -93.16900879 159.66014648 -94 160.25 C-95.78489387 161.5081848 -97.57006085 162.76598223 -99.35546875 164.0234375 C-100.28149902 164.67666992 -101.2075293 165.32990234 -102.16162109 166.00292969 C-106.86543955 169.31251467 -111.58911012 172.59343615 -116.3125 175.875 C-118.25652498 177.22654156 -120.2005353 178.5781042 -122.14453125 179.9296875 C-123.11213379 180.60225586 -124.07973633 181.27482422 -125.07666016 181.96777344 C-129.88530162 185.31061055 -134.69258892 188.65539381 -139.5 192 C-141.41666003 193.33334287 -143.3333267 194.6666762 -145.25 196 C-146.19875 196.66 -147.1475 197.32 -148.125 198 C-151 200 -153.875 202 -156.75 204 C-157.69931396 204.66040283 -158.64862793 205.32080566 -159.62670898 206.0012207 C-161.5376392 207.33054229 -163.44860907 208.65980689 -165.35961914 209.98901367 C-170.23938502 213.38325348 -175.11839466 216.7785719 -179.99609375 220.17578125 C-198.14340472 232.81225836 -198.14340472 232.81225836 -207.04956055 238.8972168 C-210.8203851 241.47967213 -214.56053218 244.10126001 -218.28515625 246.75 C-219.19177002 247.39243652 -220.09838379 248.03487305 -221.0324707 248.69677734 C-222.80939798 249.95759592 -224.58283415 251.22335293 -226.35229492 252.49462891 C-227.15900635 253.06616699 -227.96571777 253.63770508 -228.796875 254.2265625 C-229.51198242 254.73783691 -230.22708984 255.24911133 -230.96386719 255.77587891 C-233.07065319 257.04247663 -234.55244944 257.7590273 -237 258 C-238.76074219 257.18652344 -238.76074219 257.18652344 -240.546875 255.859375 C-241.21799316 255.37178711 -241.88911133 254.88419922 -242.58056641 254.38183594 C-243.29647949 253.84333008 -244.01239258 253.30482422 -244.75 252.75 C-246.29354852 251.62400916 -247.83783528 250.49902971 -249.3828125 249.375 C-250.16043945 248.80394531 -250.93806641 248.23289062 -251.73925781 247.64453125 C-254.98991033 245.27990972 -258.30232689 243.01172375 -261.625 240.75 C-271.12433274 234.24669317 -280.56551205 227.65998016 -290.01220703 221.08056641 C-294.84020773 217.71856102 -299.67017987 214.35939081 -304.5 211 C-306.41667662 209.66668098 -308.33334328 208.33334763 -310.25 207 C-311.19875 206.34 -312.1475 205.68 -313.125 205 C-321.75 199 -321.75 199 -324.62670898 196.9987793 C-326.5376392 195.66945771 -328.44860907 194.34019311 -330.35961914 193.01098633 C-335.23938502 189.61674652 -340.11839466 186.2214281 -344.99609375 182.82421875 C-355.97313566 175.18040664 -366.96678126 167.56248501 -378 160 C-392.05367218 150.36720944 -406.0377516 140.63562627 -420.01855469 130.89746094 C-434.39293282 120.88483959 -434.39293282 120.88483959 -448.8125 110.9375 C-450.07422059 110.07031517 -451.33593943 109.20312781 -452.59765625 108.3359375 C-454.74858369 106.85788896 -456.90245395 105.38453332 -459.05859375 103.9140625 C-459.94675781 103.30304688 -460.83492187 102.69203125 -461.75 102.0625 C-462.48734375 101.55847656 -463.2246875 101.05445313 -463.984375 100.53515625 C-464.64953125 100.02855469 -465.3146875 99.52195312 -466 99 C-466.69220642 98.49567444 -467.38441284 97.99134888 -468.09759521 97.47174072 C-470.94646071 93.77029038 -470.52977193 90.46627542 -470.45410156 85.91699219 C-470.45468567 84.99957245 -470.45526978 84.08215271 -470.45587158 83.13693237 C-470.45308631 80.10652748 -470.42197308 77.07710792 -470.390625 74.046875 C-470.3831642 71.94509417 -470.37747051 69.84330638 -470.37347412 67.74151611 C-470.35820524 62.2109861 -470.31891228 56.68087661 -470.2746582 51.1505127 C-470.23373275 45.50664967 -470.21546891 39.86271866 -470.1953125 34.21875 C-470.15241952 23.14564862 -470.08415274 12.07285929 -470 1 C-466.83355746 2.23299504 -464.11243045 3.4408705 -461.35546875 5.43359375 C-460.68733154 5.9116748 -460.01919434 6.38975586 -459.33081055 6.88232422 C-458.62351807 7.39553223 -457.91622559 7.90874023 -457.1875 8.4375 C-455.65686939 9.53341769 -454.12560522 10.62845096 -452.59375 11.72265625 C-451.82289063 12.27453613 -451.05203125 12.82641602 -450.2578125 13.39501953 C-446.92829657 15.76182724 -443.56057432 18.07089388 -440.1875 20.375 C-434.24546939 24.44339082 -428.33384078 28.55317767 -422.4375 32.6875 C-408.60078446 42.38811663 -394.75054258 52.07033723 -380.8125 61.625 C-374.15230405 66.19101503 -367.534151 70.81551027 -360.92211914 75.45092773 C-347.9845614 84.51940134 -335.02925002 93.56361919 -322 102.5 C-307.29076142 112.58863574 -292.67810353 122.81743295 -278.07397461 133.05737305 C-272.37007654 137.05244804 -266.64003847 141.00746384 -260.8918457 144.93847656 C-257.3642307 147.35633557 -253.85804385 149.80112478 -250.37109375 152.27734375 C-249.59983154 152.82503418 -248.82856934 153.37272461 -248.03393555 153.93701172 C-246.54787857 154.99464585 -245.06356841 156.05474014 -243.58129883 157.11767578 C-242.90993896 157.59575684 -242.2385791 158.07383789 -241.546875 158.56640625 C-240.66273926 159.19977905 -240.66273926 159.19977905 -239.76074219 159.84594727 C-237.90324142 161.063419 -236.00324023 162.04485814 -234 163 C-234 162.34 -234 161.68 -234 161 C-232.57324219 159.80175781 -232.57324219 159.80175781 -230.546875 158.453125 C-229.79253174 157.94507324 -229.03818848 157.43702148 -228.26098633 156.91357422 C-227.43236084 156.36459473 -226.60373535 155.81561523 -225.75 155.25 C-223.99797516 154.07138618 -222.24669667 152.89166228 -220.49609375 151.7109375 C-219.58714355 151.09959961 -218.67819336 150.48826172 -217.74169922 149.85839844 C-213.39709447 146.91350695 -209.10492191 143.89522218 -204.8125 140.875 C-198.8952218 136.71992777 -192.96540798 132.58568897 -187 128.5 C-180.97283416 124.37167841 -174.9805985 120.19548046 -169 116 C-163.01939973 111.80451829 -157.02707384 107.62845761 -151 103.5 C-145.12138487 99.47201885 -139.27255686 95.40332019 -133.4375 91.3125 C-118.97594014 81.17396371 -104.49336727 71.06562541 -89.92480469 61.08129883 C-83.7271453 56.82695985 -77.57517933 52.50800709 -71.42114258 48.19091797 C-66.29879419 44.60050981 -61.16071263 41.03501283 -56 37.5 C-49.28642162 32.89990855 -42.61493273 28.24158472 -35.95141602 23.56933594 C-29.12294863 18.78253118 -22.2829229 14.01252373 -15.4375 9.25 C-14.44355225 8.55817627 -13.44960449 7.86635254 -12.42553711 7.15356445 C-11.03733765 6.18809692 -11.03733765 6.18809692 -9.62109375 5.203125 C-8.39024048 4.34702637 -8.39024048 4.34702637 -7.13452148 3.47363281 C-2.10304838 0 -2.10304838 0 0 0 Z " fill="#1F72B8" transform="translate(674,335)"/>
<path d="M0 0 C0 0.66 0 1.32 0 2 C1.03447266 2.38478516 1.03447266 2.38478516 2.08984375 2.77734375 C6.5591262 4.65504228 10.70851845 7.08762702 14.94140625 9.44140625 C22.70040517 13.39522562 33.87215682 13.87487652 42.21191406 11.32324219 C47.05850993 9.34105407 51.54060157 6.72679666 56 4 C69.9627 -4.36444764 82.64525195 -8.96282 99.13623047 -5.55908203 C109.86353412 -2.60511152 119.62056012 3.36244184 129.14746094 8.95019531 C137.1262743 13.47166308 146.0032988 13.32289616 155 12 C162.58109098 9.7553809 169.21562722 5.35089291 175.5625 0.75 C183.18450798 -4.62505765 192.91293387 -6 202 -6 C202 -1.38 202 3.24 202 8 C200.55625 8.2475 199.1125 8.495 197.625 8.75 C189.38799979 10.43667887 182.72603328 13.44328227 175.625 17.9375 C162.79329885 26.05767924 149.57009053 30.53675782 134.34765625 27.19921875 C126.68831807 24.86042818 120.25816238 21.56218271 113.49145508 17.31884766 C101.54199996 9.88509304 90.95014701 7.2297607 77.0625 10 C69.91520123 11.95777909 64.14717497 15.98601688 58 20 C46.70148738 26.81264676 32.90489661 30.2261005 19.90625 27.3046875 C12.76306447 25.11386514 6.43609311 21.73976716 0 18 C-12.87419113 10.62546334 -22.87900525 7.00219876 -37.875 9.9375 C-44.26886524 11.6843207 -49.192174 15.10731208 -54.609375 18.77734375 C-64.17813896 25.19706533 -73.56801578 28 -85 28 C-85 23.05 -85 18.1 -85 13 C-81.74479167 12.54427083 -78.48958333 12.08854167 -75.234375 11.6328125 C-72.37136295 11.07265797 -70.54925403 10.29641551 -68 9 C-66.68 9 -65.36 9 -64 9 C-64 8.34 -64 7.68 -64 7 C-44.47039157 -6.41627923 -22.0399745 -11.01998725 0 0 Z " fill="#6FCEE9" transform="translate(380,648)"/>
<path d="M0 0 C9.79559287 5.99657297 18.62972461 7.51792559 30.015625 5.453125 C37.1551955 3.38538054 43.02216423 -0.33586489 49.19628906 -4.3449707 C60.74415191 -11.80981927 73.2867532 -15.20487836 87.10888672 -12.60302734 C91.46201446 -11.58958499 95.73535031 -10.33792931 100 -9 C100 -8.34 100 -7.68 100 -7 C100.57580811 -6.88068115 101.15161621 -6.7613623 101.74487305 -6.63842773 C104.12936058 -5.96337795 105.94345576 -5.03046925 108.08203125 -3.78515625 C109.23348633 -3.12676758 109.23348633 -3.12676758 110.40820312 -2.45507812 C112.00060005 -1.53275561 113.59176542 -0.60830325 115.18164062 0.31835938 C124.32072317 5.53305727 132.49357216 6.9821226 143 6 C146.09084217 5.15369798 148.94508322 4.12990537 151.890625 2.875 C154 2 154 2 156 2 C156 1.34 156 0.68 156 0 C162.80144589 -4.9956566 169.92477818 -8.72142418 177.953125 -11.30859375 C179.96868989 -11.82081312 179.96868989 -11.82081312 181 -13 C184.6691577 -13.14310287 188.32715441 -13.04221662 192 -13 C192 -8.38 192 -3.76 192 1 C190.99582031 1.1959375 189.99164062 1.391875 188.95703125 1.59375 C179.97044351 3.50541421 173.08337488 6.2187476 165.4765625 11.390625 C163 13 163 13 161 13 C161 13.66 161 14.32 161 15 C146.87378241 21.38816838 133.55120799 23.83249324 118.51171875 18.60546875 C113.09918059 16.13099357 108.05921357 13.06987909 102.95776367 10.01513672 C93.64518103 4.48511733 84.9808298 0.884206 74 2 C73.20078125 2.07089844 72.4015625 2.14179687 71.578125 2.21484375 C64.98746406 3.14887054 60.0551088 6.01159367 54.46875 9.5390625 C52 11 52 11 50 11 C50 11.66 50 12.32 50 13 C35.86256295 19.86779888 21.25608526 24.11972967 5.75 19.4375 C0.51247933 17.43450223 -4.1967249 14.72686981 -8.97265625 11.80859375 C-21.69533257 4.20782067 -31.92350886 -0.04029823 -46.8125 2.9375 C-53.33097762 4.72455 -58.59986194 8.16140854 -64.2734375 11.70703125 C-74.54150934 18.09611257 -82.84493482 20.75444313 -95 21 C-95 16.38 -95 11.76 -95 7 C-92.89625 6.608125 -90.7925 6.21625 -88.625 5.8125 C-79.32463904 3.79757727 -72.36742927 -0.1197326 -64.375 -5.125 C-42.44045286 -18.81153882 -20.53348291 -12.81431998 0 0 Z " fill="#6FCEE9" transform="translate(390,683)"/>
<path d="M0 0 C8.00846949 4.87713021 17.5062531 4.54103175 26.5703125 3.375 C34.12433556 1.48441209 40.05520665 -2.42961992 46.2734375 -6.984375 C57.89119788 -15.28277527 72.68598191 -16.43020766 86.5703125 -14.625 C96.62070392 -12.1448334 105.7009333 -6.00419802 114.36328125 -0.54296875 C122.82611511 4.51823883 131.90502299 4.71669091 141.5703125 3.375 C149.84129372 1.05079393 156.94509862 -4.49403873 164.06640625 -9.1171875 C171.83718033 -13.796624 179.63649058 -14.15479885 188.5703125 -14.625 C188.5703125 -10.005 188.5703125 -5.385 188.5703125 -0.625 C186.9409375 -0.3775 185.3115625 -0.13 183.6328125 0.125 C174.66813222 1.79019506 167.6154918 5.87665363 159.81787109 10.4362793 C146.58504352 18.07891237 133.59704922 20.34659618 118.47265625 17.8671875 C111.36921214 15.54815503 105.02245232 11.17758803 98.62451172 7.39013672 C88.05695235 1.20143505 77.50662796 -3.01795635 65.12109375 -0.03515625 C58.35860566 2.39039733 52.26674011 6.38995078 46.18359375 10.15625 C32.87248921 18.36374542 18.5189781 21.05337336 2.98046875 17.5703125 C-4.53419762 14.87655076 -11.28916758 10.6963616 -18.01953125 6.4609375 C-28.84058234 -0.15812468 -39.54924338 -1.03140291 -52.0546875 0.8125 C-56.93735191 2.09839254 -60.97942451 5.12545312 -65.12182617 7.90820312 C-75.65202428 14.96538827 -85.70639889 18.72358325 -98.4296875 18.375 C-98.4296875 13.755 -98.4296875 9.135 -98.4296875 4.375 C-96.6353125 4.1275 -94.8409375 3.88 -92.9921875 3.625 C-83.41187959 1.98361858 -76.12478166 -2.22811066 -68.00854492 -7.36352539 C-45.17412969 -21.57153838 -20.72993383 -13.86439305 0 0 Z " fill="#6ECEE9" transform="translate(393.4296875,628.625)"/>
<path d="M0 0 C10.09608956 6.19532769 19.19938972 7.92386761 31.04296875 5.6953125 C38.55798653 3.63074718 44.88947908 0.17778346 51.51953125 -3.78515625 C63.62475787 -10.91623521 76.29352125 -13.66609821 90.3046875 -10.99609375 C99.03864263 -8.68183341 106.78909727 -4.78280436 114.4296875 -0.05859375 C124.56217017 6.15184182 132.58669447 8.54049571 144.7421875 7.31640625 C148.08386655 6.47819244 150.76977415 5.04040599 153.7421875 3.31640625 C155.00443754 2.6054007 156.26753942 1.89590639 157.53125 1.1875 C159.64456391 -0.00111505 161.7565989 -1.19177391 163.86523438 -2.38867188 C173.61279867 -7.91014797 182.34389006 -11.68359375 193.7421875 -11.68359375 C193.7421875 -7.06359375 193.7421875 -2.44359375 193.7421875 2.31640625 C190.7103125 2.81140625 190.7103125 2.81140625 187.6171875 3.31640625 C179.42568564 5.04970471 170.07116275 8.63795643 164.2421875 14.9375 C161.94694152 17.04745268 159.40121668 17.53234603 156.4296875 18.37890625 C151.54793716 19.78512898 151.54793716 19.78512898 146.73828125 21.4140625 C135.92322552 24.67126964 124.9518301 22.08809803 115.22119141 16.99755859 C111.37273896 14.92015846 107.5412852 12.81890153 103.74609375 10.64550781 C92.3371994 4.17096027 80.92607079 0.52426871 67.79296875 4.125 C61.63837241 6.78371202 56.0077112 10.55657151 50.31079102 14.07006836 C38.51091288 21.2353065 25.28581001 24.57207121 11.546875 21.6328125 C2.96727227 18.93348579 -4.74854998 14.68150485 -12.1953125 9.69140625 C-22.88134939 2.96638507 -34.14598768 1.86549726 -46.3203125 4.37890625 C-51.93542266 5.90290189 -56.33609801 8.57120611 -61.078125 11.890625 C-63.2578125 13.31640625 -63.2578125 13.31640625 -65.2578125 13.31640625 C-65.2578125 13.97640625 -65.2578125 14.63640625 -65.2578125 15.31640625 C-66.8131037 16.02006227 -68.37746077 16.70370003 -69.9453125 17.37890625 C-70.81542969 17.76175781 -71.68554688 18.14460937 -72.58203125 18.5390625 C-75.74177514 19.4570027 -77.15062486 19.36792402 -80.2578125 18.31640625 C-83.37109375 16.5390625 -83.37109375 16.5390625 -86.5703125 14.37890625 C-87.63894531 13.66863281 -88.70757812 12.95835937 -89.80859375 12.2265625 C-90.61683594 11.59621094 -91.42507813 10.96585938 -92.2578125 10.31640625 C-92.2578125 9.65640625 -92.2578125 8.99640625 -92.2578125 8.31640625 C-91.46117187 8.13464844 -90.66453125 7.95289063 -89.84375 7.765625 C-84.23984029 6.43623036 -79.37782836 5.00441458 -74.2578125 2.31640625 C-72.9378125 2.31640625 -71.6178125 2.31640625 -70.2578125 2.31640625 C-70.2578125 1.65640625 -70.2578125 0.99640625 -70.2578125 0.31640625 C-48.68750935 -17.48694167 -22.1656584 -13.93401347 0 0 Z " fill="#6FCEE9" transform="translate(388.2578125,710.68359375)"/>
<path d="M0 0 C6.03555334 3.5864918 10.98266485 4.72187391 18 5 C18.804375 5.07476563 19.60875 5.14953125 20.4375 5.2265625 C30.36453796 5.83109366 38.27799021 1.19062792 46.4375 -4 C60.50089648 -12.77715525 73.31075138 -15.08740886 89.609375 -12.40625 C99.60926579 -9.71971217 108.96584595 -3.97997395 117.5703125 1.6953125 C125.30802421 6.4134294 135.19951132 6.26131751 144 5 C149.23172524 3.18444995 153.81078539 0.45821088 158.5 -2.4375 C172.50611298 -11 172.50611298 -11 175 -11 C175 -10.34 175 -9.68 175 -9 C172.5942582 -7.30889597 170.18324764 -5.73649061 167.6875 -4.1875 C160.99805818 0.04786088 154.40157574 4.39244404 147.875 8.875 C147.09471436 9.40971924 146.31442871 9.94443848 145.51049805 10.49536133 C142.02172548 12.89368125 138.57007228 15.31868192 135.171875 17.84375 C132.01745439 19.98813446 130.15768377 20.75844466 126.33984375 20.47265625 C117.12932596 18.6121009 109.27126146 14.15050091 101.40087891 9.24633789 C91.35996559 3.03534202 80.90061573 -1.04948389 69.03125 1.68359375 C62.78752689 3.62268817 57.42854766 6.25382968 51.9609375 9.828125 C50 11 50 11 48 11 C48 11.66 48 12.32 48 13 C32.95008975 20.16143072 19.45254655 21.90841038 3 18 C-3.07519884 15.61437314 -8.53265201 12.30611828 -14.0625 8.875 C-22.19445043 3.98553614 -29.33355002 1.658175 -38.8125 1.5625 C-39.52994385 1.55234863 -40.2473877 1.54219727 -40.98657227 1.53173828 C-45.73932827 1.61036945 -48.89687019 2.67770072 -53 5 C-57.67480631 5.93496126 -60.0532704 4.52987734 -63.875 2 C-65.25942203 1.01308529 -66.63767634 0.01720167 -68 -1 C-67.8125 -2.8125 -67.8125 -2.8125 -67 -5 C-45.57190615 -20.80761022 -20.32907069 -12.31596425 0 0 Z " fill="#6ECEE9" transform="translate(391,741)"/>
<path d="M0 0 C15.14494466 -1.80138108 29.06458566 5.44940914 41.54296875 13.21606445 C48.40859524 17.4675977 54.26368561 19.28698341 62.4375 19.3125 C63.67371094 19.32925781 64.90992188 19.34601562 66.18359375 19.36328125 C74.24150912 18.59625348 80.30123425 14.80961551 87 10.5 C92.55484582 6.92631933 97.75506365 4.17457605 104 2 C104.33 1.67 104.66 1.34 105 1 C115.51106676 -0.87553053 127.23935493 -1.80215925 137.01953125 3.02734375 C139.00317764 4.00156062 140.84499823 4.53994344 143 5 C143 5.66 143 6.32 143 7 C143.825 7.226875 144.65 7.45375 145.5 7.6875 C149.73136618 9.27426232 153.25171013 11.50748237 157 14 C155.05092592 18.46185096 152.33704798 20.84517195 148 23 C143.43803031 23.09706318 140.13661279 21.1096322 136.19921875 19.0546875 C125.0003885 13.6840229 114.6120528 13.94186113 103 18 C98.63550478 20.16310509 94.6766543 22.8235002 90.6953125 25.6171875 C78.73655661 33.93452291 65.22241521 35.56917666 50.87109375 33.5625 C40.79206447 31.09101389 32.86191694 24.85484896 24.59375 18.87011719 C20.96711723 16.25528219 17.30243409 13.69621133 13.63696289 11.13623047 C11.86285286 9.89658372 10.09112653 8.65351725 8.32202148 7.40673828 C7.52352783 6.8445459 6.72503418 6.28235352 5.90234375 5.703125 C5.19585693 5.20458008 4.48937012 4.70603516 3.76147461 4.19238281 C2.0084717 2.94963417 2.0084717 2.94963417 0 2 C0 1.34 0 0.68 0 0 Z " fill="#6FCEE9" transform="translate(349,756)"/>
<path d="M0 0 C-2.19621853 5.50874703 -7.08436913 8.06252013 -12 11 C-15.10820622 12.16557733 -17.90945774 12.8661078 -21.1953125 13.26953125 C-28.31523986 14.31119265 -33.40876369 17.40769481 -39.3125 21.3203125 C-42 23 -42 23 -44 23 C-44 23.66 -44 24.32 -44 25 C-46.3046899 26.45110105 -47.57008665 27.04277384 -50.31640625 26.76953125 C-53.45968987 25.86818209 -55.5871201 24.51452855 -58.25 22.625 C-59.12140625 22.01914062 -59.9928125 21.41328125 -60.890625 20.7890625 C-63 19 -63 19 -64 16 C-62.58603098 15.49242138 -61.16868271 14.99425075 -59.75 14.5 C-58.96109375 14.2215625 -58.1721875 13.943125 -57.359375 13.65625 C-55 13 -55 13 -51 13 C-51 12.34 -51 11.68 -51 11 C-46.19244761 7.67958382 -41.10076048 4.84324368 -36 2 C-35.14535156 1.51144531 -34.29070312 1.02289062 -33.41015625 0.51953125 C-23.38398174 -4.3614008 -10.41055849 -2.95083857 0 0 Z " fill="#70CEE9" transform="translate(482,787)"/>
<path d="M0 0 C0.99 0 1.98 0 3 0 C3 79.86 3 159.72 3 242 C2.34 242 1.68 242 1 242 C0.67 163.13 0.34 84.26 0 3 C-0.66 2.67 -1.32 2.34 -2 2 C-1.34 1.34 -0.68 0.68 0 0 Z " fill="#BBD4E9" transform="translate(593,485)"/>
<path d="M0 0 C0 0.66 0 1.32 0 2 C-1.49707031 3.20507812 -1.49707031 3.20507812 -3.578125 4.53125 C-4.32707031 5.01207031 -5.07601562 5.49289062 -5.84765625 5.98828125 C-6.64042969 6.48714844 -7.43320312 6.98601563 -8.25 7.5 C-9.02730469 7.99886719 -9.80460938 8.49773438 -10.60546875 9.01171875 C-14.00756974 11.1809216 -17.36321059 13.24374651 -21 15 C-21.99 14.34 -22.98 13.68 -24 13 C-21.64639882 11.58238693 -19.29213772 10.1658896 -16.9375 8.75 C-15.95233398 8.15638672 -15.95233398 8.15638672 -14.94726562 7.55078125 C-12.96822758 6.36140863 -10.98511509 5.17919859 -9 4 C-8.34402832 3.60748047 -7.68805664 3.21496094 -7.01220703 2.81054688 C-2.23254244 0 -2.23254244 0 0 0 Z " fill="#8ED8ED" transform="translate(566,730)"/>
<path d="M0 0 C0 0.66 0 1.32 0 2 C-2.97 3.65 -5.94 5.3 -9 7 C-9.66 6.34 -10.32 5.68 -11 5 C-9.54462432 4.16151196 -8.08559627 3.32936066 -6.625 2.5 C-5.81289063 2.0359375 -5.00078125 1.571875 -4.1640625 1.09375 C-2 0 -2 0 0 0 Z " fill="#B1E4F2" transform="translate(566,730)"/>
</svg>
